<?xml version="1.0" encoding="utf-8"?>
<!-- Generator: Adobe Illustrator 24.0.1, SVG Export Plug-In . SVG Version: 6.00 Build 0)  -->
<svg version="1.1" id="Isolation_Mode" xmlns="http://www.w3.org/2000/svg" xmlns:xlink="http://www.w3.org/1999/xlink" x="0px"
	 y="0px" viewBox="0 0 159 185.5" style="enable-background:new 0 0 159 185.5;" xml:space="preserve">
<style type="text/css">
	.st0{fill:#FFFFFF;}
	.st1{fill:#FEE8F8;}
	.st2{fill:#FF5A5F;}
</style>
<g>
	<rect x="12.4" y="24.3" class="st0" width="132.4" height="144.1"/>
	<rect x="21.6" y="33.5" class="st1" width="114.1" height="114.1"/>
	<path class="st2" d="M21.6,123.9v23.7h114.1v-23.6c-1.4-1.4-3.1-2.6-4.8-3.6c-6.6-3.7-14.6-4.7-21.9-2.6c-2.5,0.7-4.9,1.8-7.5,1.7
		c-6.1-0.2-9.9-6.4-13.2-11.6c-4-6.3-8.8-12.1-14-17.5C63,78.7,50.7,83.8,46.4,85.4c-6.5,2.5-10.8,8.8-14.3,14.9
		C27.9,107.8,24.4,115.7,21.6,123.9z"/>
	<ellipse transform="matrix(0.2247 -0.9744 0.9744 0.2247 13.974 144.1932)" class="st2" cx="97.6" cy="63.3" rx="12.5" ry="12.5"/>
</g>
</svg>
