<?xml version="1.0" encoding="utf-8"?>
<!-- Generator: Adobe Illustrator 24.0.1, SVG Export Plug-In . SVG Version: 6.00 Build 0)  -->
<svg version="1.1" id="Capa_1" xmlns="http://www.w3.org/2000/svg" xmlns:xlink="http://www.w3.org/1999/xlink" x="0px" y="0px"
	 viewBox="0 0 28.3 28.3" style="enable-background:new 0 0 28.3 28.3;" xml:space="preserve">
<g>
	<g>
		<g>
			<path d="M26.1,13.1h-24c-0.6,0-1,0.5-1,1c0,0.6,0.5,1,1,1h24c0.6,0,1-0.5,1-1S26.7,13.1,26.1,13.1z"/>
		</g>
	</g>
	<g>
		<g>
			<path d="M26.1,5h-24c-0.6,0-1,0.5-1,1s0.5,1,1,1h24c0.6,0,1-0.5,1-1S26.7,5,26.1,5z"/>
		</g>
	</g>
	<g>
		<g>
			<path d="M26.1,21.3h-24c-0.6,0-1,0.5-1,1c0,0.6,0.5,1,1,1h24c0.6,0,1-0.5,1-1C27.1,21.7,26.7,21.3,26.1,21.3z"/>
		</g>
	</g>
</g>
</svg>
