<?xml version="1.0" encoding="utf-8"?>
<!-- Generator: Adobe Illustrator 24.0.1, SVG Export Plug-In . SVG Version: 6.00 Build 0)  -->
<svg version="1.1" id="Layer_1" xmlns="http://www.w3.org/2000/svg" xmlns:xlink="http://www.w3.org/1999/xlink" x="0px" y="0px"
	 viewBox="0 0 96 96" style="enable-background:new 0 0 96 96;" xml:space="preserve">
<style type="text/css">
	.st0{fill:#E4FFDF;}
	.st1{fill:#4CAF50;}
</style>
<g>
	<circle class="st0" cx="48" cy="48" r="48"/>
</g>
<g>
	<g>
		<g>
			<path class="st1" d="M68.6,46.6H43.6c-0.8,0-1.4,0.6-1.4,1.4s0.6,1.4,1.4,1.4h25.1c0.8,0,1.4-0.6,1.4-1.4S69.4,46.6,68.6,46.6z"
				/>
		</g>
	</g>
	<g>
		<g>
			<path class="st1" d="M32.4,41.6c-3.5,0-6.4,2.9-6.4,6.4s2.9,6.4,6.4,6.4s6.4-2.9,6.4-6.4S35.9,41.6,32.4,41.6z M32.4,51.6
				c-2,0-3.6-1.6-3.6-3.6c0-2,1.6-3.6,3.6-3.6c2,0,3.6,1.6,3.6,3.6S34.4,51.6,32.4,51.6z"/>
		</g>
	</g>
	<g>
		<g>
			<path class="st1" d="M68.6,29.5H43.6c-0.8,0-1.4,0.6-1.4,1.4c0,0.8,0.6,1.4,1.4,1.4h25.1c0.8,0,1.4-0.6,1.4-1.4
				C70,30.1,69.4,29.5,68.6,29.5z"/>
		</g>
	</g>
	<g>
		<g>
			<path class="st1" d="M32.4,24.4c-3.5,0-6.4,2.9-6.4,6.4s2.9,6.4,6.4,6.4s6.4-2.9,6.4-6.4C38.8,27.3,35.9,24.4,32.4,24.4z
				 M32.4,34.5c-2,0-3.6-1.6-3.6-3.6s1.6-3.6,3.6-3.6c2,0,3.6,1.6,3.6,3.6S34.4,34.5,32.4,34.5z"/>
		</g>
	</g>
	<g>
		<g>
			<path class="st1" d="M68.6,63.8H43.6c-0.8,0-1.4,0.6-1.4,1.4c0,0.8,0.6,1.4,1.4,1.4h25.1c0.8,0,1.4-0.6,1.4-1.4
				C70,64.4,69.4,63.8,68.6,63.8z"/>
		</g>
	</g>
	<g>
		<g>
			<path class="st1" d="M32.4,58.8c-3.5,0-6.4,2.9-6.4,6.4s2.9,6.4,6.4,6.4s6.4-2.9,6.4-6.4C38.8,61.7,35.9,58.8,32.4,58.8z
				 M32.4,68.8c-2,0-3.6-1.6-3.6-3.6c0-2,1.6-3.6,3.6-3.6c2,0,3.6,1.6,3.6,3.6C36,67.2,34.4,68.8,32.4,68.8z"/>
		</g>
	</g>
</g>
</svg>
