<?xml version="1.0" encoding="utf-8"?>
<!-- Generator: Adobe Illustrator 24.0.1, SVG Export Plug-In . SVG Version: 6.00 Build 0)  -->
<svg version="1.1" id="Layer_1" xmlns="http://www.w3.org/2000/svg" xmlns:xlink="http://www.w3.org/1999/xlink" x="0px" y="0px"
	 viewBox="0 0 858 1214" style="enable-background:new 0 0 858 1214;" xml:space="preserve">
<style type="text/css">
	.st0{fill:#FFF1F1;}
	.st1{opacity:0.52;fill:#FFF1F1;stroke:#E6F3FF;stroke-width:0.922;stroke-miterlimit:10;enable-background:new    ;}
	.st2{opacity:7.000000e-02;}
	.st3{fill:#FF5A5F;}
	.st4{fill:#FFFFFF;}
	.st5{opacity:0.5;}
	.st6{fill:#0B090A;}
	.st7{opacity:0.12;}
	.st8{fill:#0D090A;}
	.st9{fill:none;}
	.st10{fill:none;stroke:#FFFFFF;stroke-miterlimit:10;}
	.st11{fill:#E22D43;}
	.st12{fill:#FF858E;}
	.st13{fill:none;stroke:#FF5A5F;stroke-width:0.9921;stroke-miterlimit:10;}
	.st14{fill:none;stroke:#FF5A5F;stroke-width:0.9921;stroke-miterlimit:10;stroke-dasharray:2.8433,5.6866;}
	.st15{fill:#F7F7F7;}
</style>
<g>
	<polygon class="st0" points="859,1061.2 -1,1061.2 111.3,948.9 746.7,948.9 	"/>
	<path class="st1" d="M24,1050.9l91.6-91.6h626.9l91.6,91.6H24z"/>
	<path class="st0" d="M477,981.2c-90.6,0-167,6.9-190.8,16.4c-15.1-1.5-34.7-2.4-56.3-2.4c-47.3,0-85.6,4.4-85.6,9.7
		c0,5.4,38.3,9.7,85.6,9.7c24,0,45.7-1.1,61.2-2.9c28.2,8.6,100.8,14.7,185.9,14.7c109.6,0,198.4-10.1,198.4-22.6
		C675.4,991.3,586.5,981.2,477,981.2z"/>
</g>
<g>
	<g>
		<g class="st2">
			<g>
				<path class="st3" d="M812,833.1v-15.4c0-1-0.8-1.8-1.8-1.8h-4.4c-0.8,0-1.4-0.5-1.7-1.2c-0.5-1.6-1.2-3.1-1.9-4.6
					c-0.4-0.7-0.3-1.5,0.3-2.1l3.2-3.2c0.7-0.7,0.7-1.8,0-2.5l-10.9-10.9c-0.7-0.7-1.8-0.7-2.5,0l-3.3,3.3c-0.5,0.5-1.4,0.7-2,0.3
					c-1.4-0.7-2.9-1.3-4.4-1.8c-0.7-0.2-1.2-0.9-1.2-1.7V787c0-1-0.8-1.8-1.8-1.8h-15.4c-1,0-1.8,0.8-1.8,1.8v4.7
					c0,0.8-0.5,1.4-1.2,1.7c-1.5,0.5-3,1.1-4.4,1.8c-0.7,0.3-1.5,0.2-2-0.3l-3.3-3.3c-0.7-0.7-1.8-0.7-2.5,0l-11,10.8
					c-0.7,0.7-0.7,1.8,0,2.5l3.2,3.2c0.6,0.6,0.7,1.4,0.3,2.1c-0.8,1.5-1.4,3-1.9,4.6c-0.2,0.7-0.9,1.2-1.7,1.2h-4.4
					c-1,0-1.8,0.8-1.8,1.8v15.4c0,1,0.8,1.8,1.8,1.8h4.1c0.8,0,1.5,0.5,1.7,1.3c0.5,1.7,1.2,3.3,1.9,4.9c0.3,0.7,0.2,1.5-0.3,2.1
					l-2.9,2.9c-0.7,0.7-0.7,1.8,0,2.5l10.9,10.9c0.7,0.7,1.8,0.7,2.5,0l2.7-2.7c0.6-0.6,1.4-0.7,2.1-0.3c1.6,0.8,3.3,1.5,5,2.1
					c0.7,0.2,1.3,0.9,1.3,1.7v3.8c0,1,0.8,1.8,1.8,1.8h15.4c1,0,1.8-0.8,1.8-1.8V860c0-0.8,0.5-1.4,1.3-1.7c1.7-0.6,3.4-1.3,5-2.1
					c0.7-0.4,1.5-0.3,2.1,0.3l2.7,2.7c0.7,0.7,1.8,0.7,2.5,0l10.9-10.9c0.7-0.7,0.7-1.8,0-2.5l-2.9-2.9c-0.5-0.5-0.7-1.4-0.3-2.1
					c0.8-1.6,1.4-3.2,1.9-4.9c0.2-0.8,0.9-1.3,1.7-1.3h4.1C811.2,834.8,812,834,812,833.1z M789.6,829.8c-0.4,1.8-1,3.5-1.9,5
					c-1.5,2.7-3.8,5-6.4,6.6c-1.5,0.9-3,1.6-4.7,2c-1.5,0.4-3.1,0.6-4.7,0.6c-1.6,0-3.2-0.2-4.7-0.6c-1.7-0.5-3.3-1.1-4.7-2
					c-2.7-1.6-4.9-3.9-6.4-6.6c-0.9-1.5-1.5-3.2-1.9-5c-0.3-1.3-0.4-2.6-0.4-4c0-1.6,0.2-3.2,0.6-4.7c0.5-1.9,1.3-3.6,2.3-5.2
					c1.5-2.3,3.5-4.3,5.9-5.7c1.7-1,3.5-1.7,5.5-2.2c1.3-0.3,2.6-0.4,4-0.4s2.7,0.1,4,0.4c2,0.4,3.8,1.2,5.5,2.2
					c2.4,1.4,4.4,3.4,5.9,5.7c1,1.6,1.8,3.3,2.3,5.2c0.4,1.5,0.6,3.1,0.6,4.7C790.1,827.2,789.9,828.5,789.6,829.8z"/>
			</g>
		</g>
		<g class="st2">
			<g>
				<path class="st3" d="M234.6,790.4V775c0-1-0.8-1.8-1.8-1.8h-4.4c-0.8,0-1.4-0.5-1.7-1.2c-0.5-1.6-1.2-3.1-1.9-4.6
					c-0.4-0.7-0.3-1.5,0.3-2.1l3.2-3.2c0.7-0.7,0.7-1.8,0-2.5l-10.9-10.9c-0.7-0.7-1.8-0.7-2.5,0l-3.3,3.3c-0.5,0.5-1.4,0.7-2,0.3
					c-1.4-0.7-2.9-1.3-4.4-1.8c-0.7-0.2-1.2-0.9-1.2-1.7v-4.7c0-1-0.8-1.8-1.8-1.8h-15.4c-1,0-1.8,0.8-1.8,1.8v4.7
					c0,0.8-0.5,1.4-1.2,1.7c-1.5,0.5-3,1.1-4.4,1.8c-0.7,0.3-1.5,0.2-2-0.3l-3.3-3.3c-0.7-0.7-1.8-0.7-2.5,0l-10.9,10.9
					c-0.7,0.7-0.7,1.8,0,2.5l3.2,3.2c0.6,0.6,0.7,1.4,0.3,2.1c-0.8,1.5-1.4,3-1.9,4.6c-0.2,0.7-0.9,1.2-1.7,1.2H156
					c-1,0-1.8,0.8-1.8,1.8v15.4c0,1,0.8,1.8,1.8,1.8h4.1c0.8,0,1.5,0.5,1.7,1.3c0.5,1.7,1.2,3.3,1.9,4.9c0.3,0.7,0.2,1.5-0.3,2.1
					l-2.9,2.9c-0.7,0.7-0.7,1.8,0,2.5l10.9,10.9c0.7,0.7,1.8,0.7,2.5,0l2.7-2.7c0.6-0.6,1.4-0.7,2.1-0.3c1.6,0.8,3.3,1.5,5,2.1
					c0.7,0.2,1.3,0.9,1.3,1.7v3.8c0,1,0.8,1.8,1.8,1.8h15.4c1,0,1.8-0.8,1.8-1.8v-3.8c0-0.8,0.5-1.4,1.3-1.7c1.7-0.6,3.4-1.3,5-2.1
					c0.7-0.4,1.5-0.3,2.1,0.3l2.7,2.7c0.7,0.7,1.8,0.7,2.5,0l10.9-10.9c0.7-0.7,0.7-1.8,0-2.5l-2.9-2.9c-0.5-0.5-0.7-1.4-0.3-2.1
					c0.8-1.6,1.4-3.2,1.9-4.9c0.2-0.8,0.9-1.3,1.7-1.3h4.1C233.8,792.2,234.6,791.4,234.6,790.4z M212.2,787.2c-0.4,1.8-1,3.5-1.9,5
					c-1.5,2.7-3.8,5-6.4,6.6c-1.5,0.9-3,1.6-4.7,2c-1.5,0.4-3.1,0.6-4.7,0.6c-1.6,0-3.2-0.2-4.7-0.6c-1.7-0.5-3.3-1.1-4.7-2
					c-2.7-1.6-4.9-3.9-6.4-6.6c-0.9-1.5-1.5-3.2-1.9-5c-0.3-1.3-0.4-2.6-0.4-4c0-1.6,0.2-3.2,0.6-4.7c0.5-1.9,1.3-3.6,2.3-5.2
					c1.5-2.3,3.5-4.3,5.9-5.7c1.7-1,3.5-1.7,5.5-2.2c1.3-0.3,2.6-0.4,4-0.4s2.7,0.1,4,0.4c2,0.4,3.8,1.2,5.5,2.2
					c2.4,1.4,4.4,3.4,5.9,5.7c1,1.6,1.8,3.3,2.3,5.2c0.4,1.5,0.6,3.1,0.6,4.7C212.6,784.6,212.5,785.9,212.2,787.2z"/>
			</g>
		</g>
		<g>
			<g>
				<path class="st4" d="M734.9,678.4H498.7c-2,0-3.7-1.7-3.7-3.7V477.3c0-2,1.7-3.7,3.7-3.7h236.2c2,0,3.7,1.7,3.7,3.7v197.4
					C738.6,676.7,736.9,678.4,734.9,678.4z"/>
			</g>
			<g>
				<path class="st3" d="M731.9,679.4H501.7c-4.2,0-7.6-3.8-7.6-8.6V481.2c0-4.7,3.4-8.6,7.6-8.6h230.1c4.2,0,7.6,3.8,7.6,8.6v189.7
					C739.5,675.6,736.1,679.4,731.9,679.4z M501.7,474.7c-3.2,0-5.8,2.9-5.8,6.5v189.7c0,3.6,2.6,6.5,5.8,6.5h230.1
					c3.2,0,5.8-2.9,5.8-6.5V481.2c0-3.6-2.6-6.5-5.8-6.5H501.7z"/>
			</g>
		</g>
		<g>
			<g>
				
					<ellipse transform="matrix(0.9871 -0.1601 0.1601 0.9871 -89.2335 92.3529)" class="st4" cx="528.4" cy="599.9" rx="16.6" ry="16.6"/>
			</g>
			<g>
				<path class="st3" d="M528.4,617.3c-9.7,0-17.6-7.9-17.6-17.6c0-9.7,7.9-17.6,17.6-17.6S546,590,546,599.7
					C546,609.5,538.1,617.3,528.4,617.3z M528.4,584c-8.7,0-15.7,7.1-15.7,15.7c0,8.7,7.1,15.7,15.7,15.7s15.7-7.1,15.7-15.7
					C544.1,591.1,537.1,584,528.4,584z"/>
			</g>
		</g>
		<g class="st5">
			<g>
				<g>
					<path class="st4" d="M161.7,1019.8H49.2c-1.3,0-2.3-1-2.3-2.3V837.9c0-1.3,1-2.3,2.3-2.3h112.5c1.3,0,2.3,1,2.3,2.3v179.7
						C164,1018.8,163,1019.8,161.7,1019.8z"/>
				</g>
				<g>
					<path class="st3" d="M159.8,1020.7H51.1c-2.8,0-5.1-2.3-5.1-5.1V839.8c0-2.8,2.3-5.1,5.1-5.1h108.8c2.8,0,5.1,2.3,5.1,5.1
						v175.9C164.9,1018.5,162.6,1020.7,159.8,1020.7z M51.1,836.5c-1.8,0-3.3,1.5-3.3,3.3v175.9c0,1.8,1.5,3.3,3.3,3.3h108.8
						c1.8,0,3.3-1.5,3.3-3.3V839.8c0-1.8-1.5-3.3-3.3-3.3H51.1z"/>
				</g>
			</g>
			<g>
				<g>
					<path class="st4" d="M179.5,1019.8H67c-1.3,0-2.3-1-2.3-2.3V837.9c0-1.3,1-2.3,2.3-2.3h112.5c1.3,0,2.3,1,2.3,2.3v179.7
						C181.8,1018.8,180.8,1019.8,179.5,1019.8z"/>
				</g>
				<g>
					<path class="st3" d="M177.6,1020.7H68.9c-2.8,0-5.1-2.3-5.1-5.1V839.8c0-2.8,2.3-5.1,5.1-5.1h108.8c2.8,0,5.1,2.3,5.1,5.1
						v175.9C182.7,1018.5,180.4,1020.7,177.6,1020.7z M68.9,836.5c-1.8,0-3.3,1.5-3.3,3.3v175.9c0,1.8,1.5,3.3,3.3,3.3h108.8
						c1.8,0,3.3-1.5,3.3-3.3V839.8c0-1.8-1.5-3.3-3.3-3.3H68.9z"/>
				</g>
			</g>
			<g>
				<g>
					<path class="st4" d="M170.1,893.9H76.4c-1.3,0-2.3-1-2.3-2.3v-42.3c0-1.3,1-2.3,2.3-2.3H170c1.3,0,2.3,1,2.3,2.3v42.3
						C172.4,892.9,171.3,893.9,170.1,893.9z"/>
				</g>
				<g>
					<path class="st3" d="M168.2,894.8H78.3c-2.8,0-5.1-2.3-5.1-5.1v-38.5c0-2.8,2.3-5.1,5.1-5.1h89.9c2.8,0,5.1,2.3,5.1,5.1v38.5
						C173.3,892.5,171,894.8,168.2,894.8z M78.3,847.9c-1.8,0-3.3,1.5-3.3,3.3v38.5c0,1.8,1.5,3.3,3.3,3.3h89.9
						c1.8,0,3.3-1.5,3.3-3.3v-38.5c0-1.8-1.5-3.3-3.3-3.3H78.3z"/>
				</g>
			</g>
			<g>
				<g>
					<path class="st4" d="M170.2,948.7H76.6c-1.3,0-2.3-1-2.3-2.3v-42.3c0-1.3,1-2.3,2.3-2.3h93.6c1.3,0,2.3,1,2.3,2.3v42.3
						C172.5,947.7,171.5,948.7,170.2,948.7z"/>
				</g>
				<g>
					<path class="st3" d="M168.4,949.6H78.5c-2.8,0-5.1-2.3-5.1-5.1V906c0-2.8,2.3-5.1,5.1-5.1h89.9c2.8,0,5.1,2.3,5.1,5.1v38.5
						C173.4,947.3,171.2,949.6,168.4,949.6z M78.5,902.7c-1.8,0-3.3,1.5-3.3,3.3v38.5c0,1.8,1.5,3.3,3.3,3.3h89.9
						c1.8,0,3.3-1.5,3.3-3.3V906c0-1.8-1.5-3.3-3.3-3.3H78.5z"/>
				</g>
			</g>
			<g>
				<g>
					<path class="st4" d="M170.1,1005.1H76.4c-1.3,0-2.3-1-2.3-2.3v-42.3c0-1.3,1-2.3,2.3-2.3H170c1.3,0,2.3,1,2.3,2.3v42.3
						C172.4,1004,171.3,1005.1,170.1,1005.1z"/>
				</g>
				<g>
					<path class="st3" d="M168.2,1006H78.3c-2.8,0-5.1-2.3-5.1-5.1v-38.5c0-2.8,2.3-5.1,5.1-5.1h89.9c2.8,0,5.1,2.3,5.1,5.1v38.5
						C173.3,1003.7,171,1006,168.2,1006z M78.3,959.1c-1.8,0-3.3,1.5-3.3,3.3v38.5c0,1.8,1.5,3.3,3.3,3.3h89.9
						c1.8,0,3.3-1.5,3.3-3.3v-38.5c0-1.8-1.5-3.3-3.3-3.3H78.3z"/>
				</g>
			</g>
			<g>
				<g>
					<circle class="st3" cx="123.2" cy="861.6" r="7"/>
				</g>
			</g>
			<g>
				<g>
					<circle class="st3" cx="123.4" cy="914.8" r="7"/>
				</g>
			</g>
			<g>
				<g>
					<circle class="st3" cx="123.2" cy="974.6" r="7"/>
				</g>
			</g>
		</g>
		<g class="st5">
			<g>
				<g>
					<g>
						<path class="st4" d="M726.6,963.9c-4.3,2.3-10.6-0.4-14.3-3.5c-5.7-4.8-3.9-9.7-8-17.4c-7.6-14.3-21.7-11.7-24.7-23.1
							c-1.9-7.3,3.6-9.6,1.3-19.4c-2-8.3-7-11.4-5.3-15.2c1.6-3.7,8.6-6,13.4-3.8c7.7,3.4,3.8,15.1,13.6,25c4.9,5,6.5,2.7,13.1,8.2
							c12.1,10,14.6,24.1,15,26.8C731.3,944.9,733.7,960.1,726.6,963.9z"/>
					</g>
					<g>
						<path class="st3" d="M722.8,965.7c-3.9,0-8.1-2.1-11.1-4.6c-3.6-3.1-4.4-6.1-5.3-9.7c-0.6-2.3-1.3-4.9-2.9-7.9
							c-3.7-7-9.1-9.9-13.9-12.4c-4.8-2.5-9.3-4.9-10.9-10.9c-1-3.7-0.2-6.2,0.6-8.8c0.9-2.8,1.8-5.7,0.6-10.7
							c-0.9-3.7-2.4-6.3-3.6-8.5c-1.5-2.7-2.7-4.8-1.6-7.3c1.9-4.3,9.5-6.5,14.6-4.3c4.2,1.8,5.2,5.8,6.4,10.4
							c1.2,4.6,2.6,9.9,7.4,14.8c2.4,2.4,3.8,3,5.7,3.7c1.9,0.8,4,1.6,7.4,4.4c11.8,9.8,14.7,23.4,15.3,27.4
							c2,12.6,0.4,20.7-4.7,23.4l0,0C725.7,965.4,724.3,965.7,722.8,965.7z M684.9,881.5c-3.7,0-7.4,1.8-8.4,4.1
							c-0.7,1.6,0,3,1.5,5.7c1.3,2.2,2.8,5,3.8,8.9c1.3,5.5,0.3,8.8-0.7,11.7c-0.8,2.5-1.4,4.6-0.6,7.8c1.4,5.2,5.4,7.4,10,9.8
							c5,2.6,10.6,5.6,14.6,13.1c1.7,3.2,2.4,5.9,3,8.3c0.9,3.4,1.6,6.1,4.8,8.8c3.8,3.2,9.6,5.4,13.3,3.4l0,0
							c4.2-2.3,5.6-9.9,3.7-21.5c-0.6-3.8-3.4-16.9-14.7-26.2c-3.2-2.6-5.1-3.4-6.9-4.1c-1.9-0.8-3.7-1.5-6.3-4.1
							c-5.2-5.2-6.7-11-7.9-15.6c-1.1-4.3-2-7.7-5.4-9.2C687.5,881.7,686.2,881.5,684.9,881.5z"/>
					</g>
				</g>
				<g>
					<g>
						<path class="st4" d="M689.5,898.9c-0.1,4.4,0.5,11,4.5,16.8c6.4,9.4,16.2,8.6,24,17.6c3.2,3.6,6.8,9.8,7.7,20.6"/>
					</g>
					<g>
						<path class="st3" d="M725.6,954.9c-0.5,0-0.9-0.4-0.9-0.8c-0.6-8.4-3.1-15.1-7.4-20.1c-3.6-4.2-7.7-6.2-11.7-8.2
							c-4.4-2.2-8.9-4.4-12.4-9.5c-3.2-4.7-4.8-10.5-4.6-17.3c0-0.5,0.5-0.8,0.9-0.9c0.5,0,0.9,0.4,0.9,0.9
							c-0.1,6.4,1.3,11.9,4.3,16.3c3.2,4.7,7.4,6.8,11.7,8.9c4.1,2.1,8.4,4.2,12.2,8.6c4.6,5.3,7.2,12.4,7.9,21.2
							C726.6,954.4,726.2,954.8,725.6,954.9C725.7,954.9,725.6,954.9,725.6,954.9z"/>
					</g>
				</g>
				<g>
					<g>
						<path class="st4" d="M734.9,963.2c3.9,3,10.6,1.3,14.7-1.2c6.4-3.9,5.4-9,10.6-15.9c9.8-12.9,23.3-8.1,28-18.9
							c3.1-6.9-2-10,1.8-19.4c3.2-7.9,8.7-10.1,7.6-14.2c-1-3.9-7.5-7.3-12.6-5.9c-8.1,2.1-6.1,14.3-17.4,22.6
							c-5.6,4.1-6.8,1.6-14.3,6c-13.5,8-18.2,21.4-19.1,24.1C733.3,943.6,728.5,958.3,734.9,963.2z"/>
					</g>
					<g>
						<path class="st3" d="M740.3,965.7c-2.2,0-4.3-0.5-5.9-1.8l0,0c-4.6-3.4-4.9-11.7-0.9-23.8c1.2-3.8,6.3-16.8,19.5-24.6
							c3.8-2.2,6-2.7,8-3.2c2-0.4,3.5-0.8,6.2-2.8c5.5-4.1,7.7-9,9.7-13.4c1.9-4.4,3.6-8.1,8-9.3c5.3-1.4,12.5,2,13.7,6.6
							c0.7,2.6-0.8,4.5-2.8,7c-1.5,1.9-3.4,4.3-4.9,7.8c-2,4.8-1.5,7.8-1.1,10.7c0.4,2.7,0.8,5.3-0.8,8.8c-2.5,5.7-7.4,7.3-12.5,9.1
							c-5.1,1.7-10.9,3.7-15.6,10c-2.1,2.7-3.1,5.2-4.1,7.4c-1.5,3.4-2.7,6.3-6.8,8.8C747.3,964.4,743.7,965.7,740.3,965.7z
							 M787.5,888.3c-0.7,0-1.5,0.1-2.2,0.3c-3.6,0.9-5,4.2-6.8,8.2c-1.9,4.4-4.3,9.8-10.3,14.2c-3,2.2-4.9,2.6-6.9,3.1
							c-1.8,0.4-3.9,0.9-7.5,3c-12.6,7.5-17.5,19.9-18.7,23.6c-3.6,11.2-3.5,18.9,0.3,21.8l0,0c3.4,2.6,9.4,1.3,13.7-1.2
							c3.6-2.1,4.7-4.7,6.1-7.9c1-2.3,2.1-4.9,4.3-7.8c5.1-6.8,11.2-8.8,16.5-10.6c4.9-1.7,9.2-3.1,11.4-8.1c1.3-3,1-5.2,0.6-7.8
							c-0.4-3-1-6.4,1.2-11.6c1.5-3.7,3.5-6.2,5.1-8.2c1.9-2.4,2.9-3.7,2.4-5.4C796.1,891,791.7,888.3,787.5,888.3z"/>
					</g>
				</g>
				<g>
					<g>
						<path class="st4" d="M781.5,907.8c-3.2,7.9-7.5,12.5-10.6,15.3c-10.1,8.8-20.4,7.9-26.8,17.4c-2.6,3.9-3.5,7.8-3.8,10.4"/>
					</g>
					<g>
						<path class="st3" d="M740.3,951.9L740.3,951.9c-0.6-0.1-0.9-0.5-0.9-1c0.5-4.1,1.9-7.7,4-10.8c3.7-5.5,8.7-7.7,14-10
							c4.2-1.9,8.6-3.8,13-7.6c4.4-3.8,7.9-8.8,10.4-15c0.2-0.5,0.7-0.7,1.2-0.5s0.7,0.7,0.5,1.2c-2.6,6.4-6.3,11.7-10.9,15.6
							c-4.6,4-9.3,6.1-13.5,7.9c-5.2,2.3-9.8,4.3-13.2,9.4c-1.9,2.9-3.2,6.3-3.7,10C741.1,951.6,740.7,951.9,740.3,951.9z"/>
					</g>
				</g>
				<g>
					<g>
						<path class="st4" d="M731.5,965.1c-8.2-0.4-15-9.8-17.7-17.4c-4.1-12,2.8-17.4,3.5-32c1.4-27.3-21.2-35.7-15.6-54.7
							c3.6-12.3,13.5-10.7,18.7-27c4.4-13.7-0.2-22.5,5.6-26.5c5.5-3.9,17.5-1.2,22.7,6.1c8.2,11.5-7.6,25-2,47.9
							c2.8,11.4,7,9.5,11.9,23.2c8.8,25,0.2,47.4-1.5,51.7C754.8,941.7,745.1,965.8,731.5,965.1z"/>
					</g>
					<g>
						<path class="st3" d="M732.1,966c-0.2,0-0.4,0-0.6,0c-8.2-0.4-15.5-9.4-18.5-18c-2.5-7.4-1-12.4,0.7-18.3
							c1.2-3.9,2.5-8.3,2.8-14.1c0.7-13.5-4.7-22.4-9.4-30.2c-4.7-7.7-9-14.9-6.2-24.7c1.7-6,4.9-8.8,8.3-11.8
							c3.8-3.3,7.7-6.8,10.3-15.2c2-6.2,2.1-11.3,2.2-15.5c0.1-5,0.2-9,3.7-11.5c6.2-4.3,18.8-1.1,24,6.3c4.3,6,2.4,12.5,0.2,20.1
							c-2.3,7.8-4.8,16.7-2.1,28.1c1.4,5.6,3.1,7.9,5.1,10.5c2,2.7,4.3,5.7,6.7,12.6c8.5,24.1,1,46.2-1.5,52.4
							C750.1,955.9,741.2,966,732.1,966z M732.6,806.6c-2.4,0-4.6,0.5-6.1,1.6c-2.7,1.9-2.8,5.1-2.9,10c-0.1,4.3-0.2,9.6-2.3,16
							c-2.8,8.9-7.1,12.7-10.9,16c-3.3,2.9-6.2,5.5-7.8,11c-2.6,9,1.4,15.6,6,23.3c4.9,8,10.4,17.2,9.7,31.3
							c-0.3,6-1.7,10.5-2.8,14.5c-1.7,5.8-3.1,10.3-0.7,17.2c2.8,8.1,9.5,16.4,16.8,16.8l0,0c8.3,0.4,17.1-9.6,24.6-28.2
							c2.4-6.1,9.7-27.6,1.5-51.1c-2.3-6.6-4.5-9.5-6.5-12.1c-2-2.7-4-5.2-5.4-11.2c-2.9-11.9-0.1-21.4,2.1-29.1
							c2.1-7.4,3.8-13.2,0.1-18.5C744.5,809.2,737.9,806.6,732.6,806.6z"/>
					</g>
				</g>
				<g>
					<g>
						<path class="st4" d="M732.1,831.1c-3.2,7.3-6.8,18.1-6,31.1c0.9,14.7,6.9,23,10.5,32.8c4.6,12.6,6.8,32.1-5,61.6"/>
					</g>
					<g>
						<path class="st3" d="M731.6,957.6c-0.1,0-0.2,0-0.3-0.1c-0.5-0.2-0.7-0.7-0.5-1.2c9.5-23.6,11.2-44.2,5-61
							c-1-2.7-2.2-5.3-3.4-8c-3.2-7.1-6.5-14.4-7.2-25.1c-0.6-10.4,1.4-21,6.1-31.5c0.2-0.5,0.7-0.7,1.2-0.5s0.7,0.7,0.5,1.2
							c-4.6,10.3-6.6,20.6-5.9,30.6c0.7,10.4,3.9,17.6,7,24.5c1.2,2.7,2.4,5.3,3.4,8.1c6.3,17.3,4.6,38.2-5,62.3
							C732.3,957.3,732,957.6,731.6,957.6z"/>
					</g>
				</g>
			</g>
			<g>
				<g>
					<path class="st4" d="M748.7,1020.6h-32.3c-6.5,0-11.9-5.3-11.9-11.9v-58.8h56v58.8C760.5,1015.3,755.2,1020.6,748.7,1020.6z"/>
				</g>
				<g>
					<path class="st3" d="M739,1021.5h-13c-12.4,0-22.4-10.1-22.4-22.4V950c0-0.5,0.4-0.9,0.9-0.9h56c0.5,0,0.9,0.4,0.9,0.9v49.1
						C761.4,1011.4,751.4,1021.5,739,1021.5z M705.5,950.8V999c0,11.4,9.2,20.6,20.6,20.6h13c11.4,0,20.6-9.2,20.6-20.6v-48.2H705.5
						z"/>
				</g>
			</g>
		</g>
		<g class="st5">
			<g>
				<g>
					<g>
						<path class="st4" d="M107.4,793.6c-3.2,1.7-7.9-0.3-10.6-2.6c-4.3-3.6-2.9-7.2-5.9-12.9c-5.6-10.6-16.1-8.7-18.3-17.1
							c-1.4-5.4,2.7-7.1,0.9-14.4c-1.4-6.2-5.2-8.4-3.9-11.2c1.2-2.7,6.3-4.4,9.9-2.8c5.7,2.5,2.8,11.1,10.1,18.5
							c3.6,3.7,4.8,2,9.7,6.1c9,7.4,10.8,17.8,11.1,19.8C110.9,779.5,112.7,790.8,107.4,793.6z"/>
					</g>
					<g>
						<path class="st3" d="M104.7,795.2c-2.9,0-6.2-1.5-8.4-3.4c-2.8-2.3-3.3-4.6-4-7.3c-0.4-1.7-0.9-3.6-2.1-5.8
							c-2.7-5.1-6.7-7.2-10.2-9.1c-3.6-1.9-7-3.7-8.2-8.2c-0.7-2.8-0.1-4.7,0.5-6.6c0.6-2,1.3-4.2,0.5-7.8c-0.6-2.7-1.7-4.6-2.6-6.2
							c-1.1-2-2.1-3.7-1.2-5.6c1.5-3.3,7.2-5,11.1-3.3c3.2,1.4,4,4.4,4.9,7.9c0.9,3.4,1.9,7.3,5.5,10.9c1.7,1.7,2.8,2.2,4.1,2.7
							c1.4,0.6,3,1.2,5.5,3.3c8.8,7.3,11,17.5,11.4,20.4c1.5,9.4,0.3,15.5-3.6,17.5l0,0C106.9,794.9,105.8,795.2,104.7,795.2z
							 M107.4,793.6L107.4,793.6L107.4,793.6z M76.6,732.9c-2.6,0-5.3,1.3-6.1,2.9c-0.5,1.1,0,2,1.1,4c0.9,1.7,2.1,3.7,2.8,6.7
							c1,4.1,0.2,6.6-0.5,8.8c-0.6,1.8-1.1,3.3-0.4,5.6c1,3.8,3.8,5.2,7.3,7.1c3.7,2,7.9,4.2,10.9,9.8c1.3,2.4,1.8,4.4,2.3,6.2
							c0.6,2.5,1.1,4.4,3.4,6.4c2.7,2.2,6.9,3.9,9.6,2.5c3-1.6,4-7.2,2.6-15.7c-0.4-2.8-2.5-12.4-10.8-19.3c-2.3-1.9-3.7-2.5-5-3
							c-1.4-0.6-2.8-1.1-4.7-3.1c-3.9-3.9-5-8.2-5.9-11.7c-0.9-3.3-1.5-5.6-3.9-6.7C78.4,733,77.5,732.9,76.6,732.9z"/>
					</g>
				</g>
				<g>
					<g>
						<path class="st4" d="M79.9,745.5c-0.1,3.3,0.3,8.1,3.3,12.4c4.8,6.9,12,6.4,17.8,13.1c2.3,2.7,5.1,7.3,5.7,15.3"/>
					</g>
					<g>
						<path class="st3" d="M106.7,787.2c-0.5,0-0.9-0.4-0.9-0.8c-0.5-6.2-2.3-11.1-5.4-14.7c-2.6-3.1-5.7-4.6-8.6-6
							c-3.3-1.6-6.7-3.3-9.3-7.1c-2.4-3.5-3.6-7.9-3.5-13c0-0.5,0.5-0.8,0.9-0.9c0.5,0,0.9,0.4,0.9,0.9c-0.1,4.7,1,8.7,3.1,11.9
							c2.4,3.4,5.4,4.9,8.6,6.5c3.1,1.5,6.2,3.1,9.1,6.4c3.4,3.9,5.4,9.3,5.9,15.8C107.7,786.7,107.3,787.1,106.7,787.2
							C106.8,787.2,106.7,787.2,106.7,787.2z"/>
					</g>
				</g>
				<g>
					<g>
						<path class="st4" d="M113.6,793.1c2.9,2.2,7.8,1,10.9-0.9c4.8-2.9,4-6.7,7.9-11.8c7.2-9.6,17.2-6,20.8-14
							c2.3-5.1-1.5-7.4,1.4-14.4c2.4-5.8,6.4-7.5,5.6-10.5c-0.8-2.9-5.6-5.4-9.4-4.4c-6,1.6-4.5,10.6-12.9,16.7
							c-4.2,3.1-5.1,1.2-10.6,4.5c-10,5.9-13.5,15.9-14.1,17.8C112.4,778.6,108.8,789.5,113.6,793.1z"/>
					</g>
					<g>
						<path class="st3" d="M117.6,795.2c-1.7,0-3.3-0.4-4.5-1.4c-3.5-2.6-3.7-8.8-0.8-17.9c0.9-2.8,4.7-12.5,14.5-18.3
							c2.8-1.7,4.5-2.1,6-2.4c1.4-0.3,2.5-0.6,4.5-2c4.1-3,5.7-6.6,7.1-9.9c1.5-3.3,2.7-6.1,6.1-7c4.1-1.1,9.5,1.5,10.5,5
							c0.6,2.1-0.7,3.6-2.1,5.4c-1.1,1.4-2.5,3.1-3.6,5.7c-1.4,3.5-1.1,5.6-0.8,7.8c0.3,2,0.6,4-0.6,6.6c-1.9,4.3-5.5,5.5-9.4,6.8
							c-3.7,1.3-8,2.7-11.5,7.3c-1.5,2-2.3,3.8-3,5.4c-1.1,2.5-2.1,4.7-5.1,6.6C122.8,794.2,120.1,795.2,117.6,795.2z M152.5,737.9
							c-0.5,0-1,0.1-1.5,0.2c-2.5,0.7-3.5,2.9-4.9,6c-1.4,3.3-3.2,7.3-7.7,10.6c-2.3,1.7-3.7,2-5.2,2.3c-1.4,0.3-2.9,0.6-5.5,2.2
							c-9.3,5.5-12.8,14.7-13.7,17.3c-2.7,8.2-2.6,13.8,0.1,15.9l0,0c2.4,1.8,6.9,0.9,9.9-0.9c2.6-1.6,3.4-3.4,4.4-5.8
							c0.7-1.7,1.6-3.6,3.2-5.8c3.8-5.1,8.3-6.6,12.3-8c3.8-1.3,6.7-2.3,8.3-5.9c1-2.2,0.7-3.8,0.4-5.6c-0.3-2.3-0.7-4.8,0.9-8.7
							c1.2-2.8,2.6-4.7,3.8-6.2c1.4-1.7,2.1-2.6,1.8-3.8C158.7,739.9,155.5,737.9,152.5,737.9z"/>
					</g>
				</g>
				<g>
					<g>
						<path class="st4" d="M148.1,752.1c-2.4,5.8-5.5,9.3-7.9,11.3c-7.4,6.5-15.1,5.8-19.8,12.9c-1.9,2.9-2.6,5.8-2.8,7.7"/>
					</g>
					<g>
						<path class="st3" d="M117.6,785L117.6,785c-0.6-0.1-0.9-0.5-0.9-1c0.4-3,1.4-5.8,3-8.1c2.8-4.1,6.5-5.8,10.4-7.5
							c3.1-1.4,6.4-2.8,9.6-5.6c3.2-2.8,5.8-6.5,7.6-11c0.2-0.5,0.7-0.7,1.2-0.5s0.7,0.7,0.5,1.2c-2,4.8-4.7,8.7-8.1,11.7
							c-3.4,3-6.9,4.5-10,5.9c-3.8,1.7-7.2,3.1-9.7,6.9c-1.4,2.1-2.3,4.6-2.7,7.3C118.4,784.6,118,785,117.6,785z"/>
					</g>
				</g>
				<g>
					<g>
						<path class="st4" d="M111.1,794.5c-6.1-0.3-11.1-7.2-13.1-12.9c-3.1-8.9,2-12.9,2.6-23.7c1.1-20.2-15.7-26.4-11.6-40.5
							c2.6-9.1,10-7.9,13.8-20c3.2-10.1-0.2-16.6,4.1-19.6c4.1-2.9,13-0.9,16.8,4.5c6,8.5-5.6,18.5-1.5,35.5c2.1,8.5,5.2,7,8.8,17.2
							c6.5,18.5,0.2,35.1-1.1,38.3C128.3,777.2,121.1,795,111.1,794.5z"/>
					</g>
					<g>
						<path class="st3" d="M111.5,795.4c-0.2,0-0.3,0-0.5,0l0,0c-6.2-0.3-11.7-7-13.9-13.5c-1.9-5.5-0.8-9.3,0.5-13.7
							c0.9-2.9,1.8-6.1,2-10.4c0.5-9.9-3.4-16.5-6.9-22.2s-6.8-11.1-4.6-18.5c1.3-4.5,3.7-6.6,6.2-8.9c2.8-2.4,5.6-5,7.6-11.1
							c1.4-4.5,1.5-8.3,1.6-11.4c0.1-3.8,0.2-6.8,2.8-8.7c4.7-3.3,14.2-0.8,18.1,4.7c3.2,4.5,1.8,9.4,0.2,15.1
							c-1.7,5.8-3.6,12.3-1.5,20.7c1,4.1,2.3,5.8,3.7,7.7c1.5,2,3.2,4.3,5,9.4c6.3,17.9,0.7,34.3-1.1,38.9
							C125,787.9,118.3,795.4,111.5,795.4z M111.1,793.6c6.1,0.3,12.5-7.1,18-20.7c1.8-4.5,7.2-20.3,1.1-37.7
							c-1.7-4.9-3.3-7-4.8-8.9c-1.5-2-3-3.9-4-8.4c-2.2-8.9-0.1-16,1.5-21.7c1.6-5.4,2.8-9.7,0.1-13.5c-3.6-5.1-12-6.8-15.6-4.3
							c-1.9,1.3-2,3.7-2.1,7.2c-0.1,3.2-0.2,7.1-1.7,11.9c-2.1,6.6-5.3,9.5-8.1,11.9c-2.4,2.2-4.5,4-5.7,8c-1.9,6.6,1,11.4,4.4,17.1
							c3.6,6,7.7,12.8,7.2,23.3c-0.2,4.5-1.2,7.8-2.1,10.8c-1.3,4.2-2.3,7.6-0.5,12.6C100.9,787.2,105.7,793.3,111.1,793.6
							L111.1,793.6z"/>
					</g>
				</g>
				<g>
					<g>
						<path class="st4" d="M111.5,695.3c-2.4,5.4-5.1,13.4-4.5,23c0.7,10.9,5.1,17.1,7.8,24.3c3.4,9.4,5.1,23.8-3.7,45.7"/>
					</g>
					<g>
						<path class="st3" d="M111.1,789.2c-0.1,0-0.2,0-0.3-0.1c-0.5-0.2-0.7-0.7-0.5-1.2c7-17.4,8.2-32.6,3.7-45
							c-0.7-2-1.6-3.9-2.5-5.9c-2.4-5.2-4.8-10.7-5.3-18.7c-0.5-7.7,1-15.6,4.5-23.4c0.2-0.5,0.7-0.7,1.2-0.5s0.7,0.7,0.5,1.2
							c-3.4,7.6-4.8,15.2-4.4,22.6c0.5,7.7,2.9,12.9,5.2,18c0.9,2,1.8,4,2.5,6c4.7,12.9,3.5,28.4-3.7,46.3
							C111.8,789,111.5,789.2,111.1,789.2z"/>
					</g>
				</g>
			</g>
			<g>
				<g>
					<path class="st4" d="M121.3,835.6h-18.9c-6.2,0-11.3-5-11.3-11.3v-41.1h41.4v41.1C132.5,830.5,127.5,835.6,121.3,835.6z"/>
				</g>
				<g>
					<path class="st3" d="M112.1,836.5h-0.6c-11.8,0-21.3-9.6-21.3-21.3v-31.9c0-0.5,0.4-0.9,0.9-0.9h41.4c0.5,0,0.9,0.4,0.9,0.9
						v31.9C133.4,826.9,123.9,836.5,112.1,836.5z M92,784.2v31c0,10.8,8.8,19.5,19.5,19.5h0.6c10.8,0,19.5-8.8,19.5-19.5v-31H92z"/>
				</g>
			</g>
		</g>
		<g>
			<g>
				<polygon class="st4" points="644.1,1019.8 638.6,1020.6 594.7,813 619.6,818.8 				"/>
			</g>
			<g>
				<path class="st3" d="M638.6,1021.5c-0.4,0-0.8-0.3-0.9-0.7l-43.9-207.6c-0.1-0.3,0-0.6,0.3-0.8c0.2-0.2,0.5-0.3,0.8-0.2
					l24.9,5.9c0.4,0.1,0.6,0.4,0.7,0.8l24.5,201c0.1,0.5-0.3,0.9-0.8,1l-5.5,0.8C638.7,1021.5,638.7,1021.5,638.6,1021.5z
					 M595.9,814.2l43.4,205.4l3.7-0.5l-24.3-199.4L595.9,814.2z"/>
			</g>
		</g>
		<g>
			<g>
				<g>
					<rect x="247" y="858.3" class="st4" width="12.5" height="152"/>
				</g>
			</g>
			<g>
				<g>
					<path class="st3" d="M259.5,1011.4H247c-0.6,0-1.1-0.5-1.1-1.1v-152c0-0.6,0.5-1.1,1.1-1.1h12.5c0.6,0,1.1,0.5,1.1,1.1v152
						C260.5,1010.9,260,1011.4,259.5,1011.4z M248,1009.2h10.4V859.4H248V1009.2z"/>
				</g>
			</g>
		</g>
		<g>
			<g>
				<g>
					<path class="st4" d="M296.5,870.5h-91.3c-4.3,0-7.8-3.5-7.8-7.8v-18.4c0-4.3,3.5-7.8,7.8-7.8h91.3c4.3,0,7.8,3.5,7.8,7.8v18.4
						C304.3,867,300.8,870.5,296.5,870.5z"/>
				</g>
			</g>
			<g>
				<g>
					<path class="st3" d="M287.6,871.6h-73.5c-9.8,0-17.8-8-17.8-17.8v-0.6c0-9.8,8-17.8,17.8-17.8h73.5c9.8,0,17.8,8,17.8,17.8v0.6
						C305.4,863.6,297.4,871.6,287.6,871.6z M214.1,837.6c-8.6,0-15.6,7-15.6,15.6v0.6c0,8.6,7,15.6,15.6,15.6h73.5
						c8.6,0,15.6-7,15.6-15.6v-0.6c0-8.6-7-15.6-15.6-15.6H214.1z"/>
				</g>
			</g>
		</g>
		<g>
			<g>
				<g>
					<circle class="st4" cx="284.9" cy="575.9" r="10.5"/>
				</g>
			</g>
			<g>
				<g>
					<path class="st6" d="M284.9,587.5c-6.4,0-11.6-5.2-11.6-11.6s5.2-11.6,11.6-11.6s11.6,5.2,11.6,11.6S291.3,587.5,284.9,587.5z
						 M284.9,566.4c-5.2,0-9.4,4.2-9.4,9.4s4.2,9.4,9.4,9.4c5.2,0,9.4-4.2,9.4-9.4S290.1,566.4,284.9,566.4z"/>
				</g>
			</g>
		</g>
		<g class="st2">
			<g>
				<path class="st3" d="M479.7,882.6v-11.3c0-0.7-0.6-1.3-1.3-1.3h-3.3c-0.6,0-1.1-0.4-1.2-0.9c-0.4-1.2-0.9-2.3-1.4-3.4
					c-0.3-0.5-0.2-1.1,0.2-1.5l2.3-2.3c0.5-0.5,0.5-1.3,0-1.8l-8-8c-0.5-0.5-1.3-0.5-1.8,0l-2.4,2.4c-0.4,0.4-1,0.5-1.5,0.2
					c-1-0.5-2.1-1-3.3-1.3c-0.5-0.2-0.9-0.7-0.9-1.2v-3.5c0-0.7-0.6-1.3-1.3-1.3h-11.3c-0.7,0-1.3,0.6-1.3,1.3v3.5
					c0,0.6-0.4,1.1-0.9,1.2c-1.1,0.4-2.2,0.8-3.3,1.3c-0.5,0.2-1.1,0.2-1.5-0.2L435,852c-0.5-0.5-1.3-0.5-1.8,0l-8,8
					c-0.5,0.5-0.5,1.3,0,1.8l2.3,2.3c0.4,0.4,0.5,1,0.2,1.5c-0.6,1.1-1,2.2-1.4,3.4c-0.2,0.5-0.7,0.9-1.2,0.9h-3.3
					c-0.7,0-1.3,0.6-1.3,1.3v11.3c0,0.7,0.6,1.3,1.3,1.3h3c0.6,0,1.1,0.4,1.2,0.9c0.4,1.2,0.9,2.4,1.4,3.6c0.2,0.5,0.2,1.1-0.2,1.5
					l-2.1,2.1c-0.5,0.5-0.5,1.3,0,1.8l8,8c0.5,0.5,1.3,0.5,1.8,0l2-2c0.4-0.4,1-0.5,1.5-0.2c1.2,0.6,2.4,1.1,3.7,1.5
					c0.5,0.2,0.9,0.7,0.9,1.2v2.8c0,0.7,0.6,1.3,1.3,1.3h11.3c0.7,0,1.3-0.6,1.3-1.3v-2.8c0-0.6,0.4-1.1,0.9-1.2
					c1.3-0.4,2.5-0.9,3.7-1.5c0.5-0.3,1.1-0.2,1.5,0.2l2,2c0.5,0.5,1.3,0.5,1.8,0l8-8c0.5-0.5,0.5-1.3,0-1.8l-2.1-2.1
					c-0.4-0.4-0.5-1-0.2-1.5c0.6-1.1,1-2.3,1.4-3.6c0.2-0.6,0.7-0.9,1.2-0.9h3C479.1,883.9,479.7,883.3,479.7,882.6z M463.2,880.2
					c-0.3,1.3-0.8,2.6-1.4,3.7c-1.1,2-2.8,3.7-4.7,4.9c-1.1,0.6-2.2,1.1-3.5,1.5c-1.1,0.3-2.3,0.4-3.5,0.4s-2.4-0.2-3.5-0.4
					c-1.2-0.3-2.4-0.8-3.5-1.5c-2-1.2-3.6-2.9-4.7-4.9c-0.6-1.1-1.1-2.4-1.4-3.7c-0.2-0.9-0.3-1.9-0.3-2.9c0-1.2,0.2-2.4,0.5-3.5
					c0.4-1.4,1-2.7,1.7-3.8c1.1-1.7,2.6-3.1,4.3-4.2c1.2-0.7,2.6-1.3,4-1.6c0.9-0.2,1.9-0.3,2.9-0.3s2,0.1,2.9,0.3
					c1.4,0.3,2.8,0.9,4,1.6c1.7,1.1,3.2,2.5,4.3,4.2c0.7,1.2,1.3,2.5,1.7,3.8c0.3,1.1,0.4,2.3,0.4,3.5
					C463.5,878.3,463.4,879.3,463.2,880.2z"/>
			</g>
		</g>
		<g class="st7">
			<g>
				<g>
					<g>
						<circle class="st4" cx="544.5" cy="911.9" r="23.1"/>
					</g>
				</g>
				<g>
					<g>
						<path class="st3" d="M544.5,936.5c-13.5,0-24.5-11-24.5-24.5s11-24.5,24.5-24.5s24.5,11,24.5,24.5S558.1,936.5,544.5,936.5z
							 M544.5,890.4c-11.9,0-21.6,9.7-21.6,21.6s9.7,21.6,21.6,21.6c11.9,0,21.6-9.7,21.6-21.6S556.4,890.4,544.5,890.4z"/>
					</g>
				</g>
			</g>
			<g>
				<g>
					<g>
						<path class="st3" d="M539.4,918c-0.3,0-0.7-0.1-1-0.3l-3.1-2.6c-0.6-0.5-0.7-1.5-0.2-2.1s1.5-0.7,2.1-0.2l2.2,1.9l15.8-10.3
							c0.7-0.4,1.6-0.3,2.1,0.4s0.3,1.6-0.4,2.1l-16.8,10.9C540,917.9,539.7,918,539.4,918z"/>
					</g>
				</g>
			</g>
		</g>
		<g class="st7">
			<g>
				<g>
					<g>
						<circle class="st4" cx="689.5" cy="742.7" r="23.1"/>
					</g>
				</g>
				<g>
					<g>
						<path class="st3" d="M689.5,767.2c-13.5,0-24.5-11-24.5-24.5s11-24.5,24.5-24.5s24.5,11,24.5,24.5S703,767.2,689.5,767.2z
							 M689.5,721.1c-11.9,0-21.6,9.7-21.6,21.6s9.7,21.6,21.6,21.6c11.9,0,21.6-9.7,21.6-21.6S701.4,721.1,689.5,721.1z"/>
					</g>
				</g>
			</g>
			<g>
				<g>
					<g>
						<path class="st3" d="M684.4,748.7c-0.3,0-0.7-0.1-1-0.3l-3.1-2.6c-0.6-0.5-0.7-1.5-0.2-2.1s1.5-0.7,2.1-0.2l2.2,1.9l15.8-10.3
							c0.7-0.4,1.6-0.3,2.1,0.4s0.3,1.6-0.4,2.1l-16.8,10.9C684.9,748.6,684.6,748.7,684.4,748.7z"/>
					</g>
				</g>
			</g>
		</g>
		<g class="st7">
			<g>
				<g>
					<g>
						<circle class="st4" cx="455.9" cy="619.4" r="23.1"/>
					</g>
				</g>
				<g>
					<g>
						<path class="st3" d="M455.9,644c-13.5,0-24.5-11-24.5-24.5s11-24.5,24.5-24.5s24.5,11,24.5,24.5S469.4,644,455.9,644z
							 M455.9,597.9c-11.9,0-21.6,9.7-21.6,21.6S444,641,455.9,641s21.6-9.7,21.6-21.6S467.8,597.9,455.9,597.9z"/>
					</g>
				</g>
			</g>
			<g>
				<g>
					<g>
						<path class="st3" d="M450.8,625.5c-0.3,0-0.7-0.1-0.9-0.3l-3.1-2.6c-0.6-0.5-0.7-1.5-0.2-2.1s1.5-0.7,2.1-0.2l2.2,1.9
							l15.8-10.3c0.7-0.4,1.6-0.3,2.1,0.4s0.3,1.6-0.4,2.1l-16.8,10.9C451.4,625.4,451.1,625.5,450.8,625.5z"/>
					</g>
				</g>
			</g>
		</g>
		<g class="st7">
			<g>
				<g>
					<g>
						
							<ellipse transform="matrix(0.9361 -0.3517 0.3517 0.9361 -215.5139 90.1329)" class="st4" cx="140.3" cy="638.2" rx="23.1" ry="23.1"/>
					</g>
				</g>
				<g>
					<g>
						<path class="st3" d="M140.3,662.8c-13.5,0-24.5-11-24.5-24.5s11-24.5,24.5-24.5s24.5,11,24.5,24.5
							C164.8,651.7,153.8,662.8,140.3,662.8z M140.3,616.7c-11.9,0-21.6,9.7-21.6,21.6s9.7,21.6,21.6,21.6s21.6-9.7,21.6-21.6
							S152.2,616.7,140.3,616.7z"/>
					</g>
				</g>
			</g>
			<g>
				<g>
					<g>
						<path class="st3" d="M135.2,644.2c-0.3,0-0.7-0.1-0.9-0.3l-3.1-2.6c-0.6-0.5-0.7-1.5-0.2-2.1s1.5-0.7,2.1-0.2l2.2,1.9
							l15.8-10.3c0.7-0.4,1.6-0.3,2.1,0.4s0.3,1.6-0.4,2.1L136,644C135.7,644.2,135.5,644.2,135.2,644.2z"/>
					</g>
				</g>
			</g>
		</g>
		<g>
			<g>
				<g>
					<g>
						<g>
							<g>
								<path class="st3" d="M212.2,782.6c-0.1,0-0.2,0-0.4-0.1l-0.7,42c29.5,5.7,71.7,7.8,117.1,8.2c12.6,0.1,22.8-10,22.8-22.6
									c0-0.8,0-1.6-0.1-2.4c-0.5-4.6-2.3-8.8-5.1-12.1c-3.3-4-8-6.8-13.4-7.8c-3.5-0.6-7.4-1.3-11.7-2.1
									c-30.1-5.4-76.4-13.7-108.4-19.3L212.2,782.6z"/>
							</g>
						</g>
					</g>
				</g>
				<g>
					<g>
						<g>
							<g>
								<path class="st3" d="M299.8,832.2c-0.2,1.6-0.3,3.3-0.2,5c0.3,4.3,0.6,8.8,1,13.5c2.4,31.8,5.5,70.5,8.1,96.8
									c0.6,6.8,1.3,12.7,1.8,17.5v0.1l18.9,2.1v-0.1c0.8-4.6,1.7-10.4,2.7-17c2.9-19.6,6.5-46.6,9.5-72.1c1.1-9.1,2.1-18.1,3-26.5
									c0.5-4.7,1-9.3,1.4-13.6c0.4-4.1-0.3-8.2-2-11.7c-3.2-6.9-9.8-12.1-17.9-13.1l-1.4-0.2C312.5,811.6,301.6,820.4,299.8,832.2
									z"/>
							</g>
						</g>
					</g>
				</g>
				<g>
					<g>
						<g>
							<g>
								<path class="st3" d="M211.9,782.6l-0.7,42l0,0c-0.2,9.3,6.4,17.3,15.6,19.1c29.5,5.5,71.3,7.7,116.2,8
									c12.6,0.1,22.8-10.1,22.8-22.6c0-5.5-1.9-10.6-5.3-14.6c-2.5-3-5.8-5.4-9.6-6.8c-1.2-0.4-2.4-0.8-3.7-1
									c-12-2.1-28.6-5.1-46.6-8.3C269.2,792.7,233.7,786.4,211.9,782.6L211.9,782.6z"/>
							</g>
						</g>
					</g>
				</g>
				<g>
					<g>
						<g>
							<g>
								<path class="st3" d="M394.8,626.4c-3.2,0.8-6.2-10.8-2.7-11.9c0.2-0.1,14.2-15.2,13.7-10.9c-0.4,4.3-1.9,7.5-1.9,7.5
									s15.7-10,15.2-4.5S420.8,620,394.8,626.4z"/>
							</g>
						</g>
					</g>
				</g>
				<g>
					<g>
						<g>
							<g>
								<polygon class="st6" points="310.5,965 312.7,990 313.1,995.1 325,996.5 325.8,991.2 329.5,967.2 329.5,967.1 								"/>
							</g>
						</g>
					</g>
				</g>
				<g>
					<g>
						<g>
							<g>
								<path class="st6" d="M312.6,989.7l-2.3,21.2c-0.3,2.4,1.5,4.7,3.9,4.9l36.1,4c2.8,0.3,4.4-3.2,2.2-5.1l-26.7-23.5
									C322.4,996.2,314.8,995.3,312.6,989.7z"/>
							</g>
						</g>
					</g>
				</g>
				<g>
					<g>
						<g>
							<g>
								<path class="st4" d="M172.6,727.2L172.6,727.2c0.9,4.4,3.6,8.2,7.6,10.5c0.2,0.1,0.4,0.2,0.6,0.3c0.2,0.1,0.4,0.2,0.6,0.3
									c1.1,0.5,2.2,0.9,3.3,1.1c1.9,0.4,3.9,0.4,5.8,0.1c3.2-0.5,6.2-2.1,8.5-4.5c1-1,1.9-2.2,2.6-3.5l2.4-4.5l8.6-16.1l26.4-49.4
									c5.6-10.5,1.2-23.6-9.7-28.5c-5-2.3-10.4-2.4-15.2-0.7c-5.6,1.9-10.4,6.2-12.7,12.2l-24.4,64l-1,2.7l-2.9,7.6
									C172.2,721.5,172.1,724.4,172.6,727.2z"/>
							</g>
						</g>
					</g>
				</g>
				<g>
					<g>
						<g>
							<g>
								<path class="st4" d="M295,667l24.4,10.4l43.3,18.5l0,0l3.2,1.3l2.2,0.9c3.9,1.7,8.1,1.6,11.8,0.2c1.4-0.5,2.7-1.3,3.9-2.2
									l0.1-0.1c1.2-1,2.3-2.1,3.2-3.4c0.4-0.6,0.8-1.2,1.1-1.9c0.4-0.8,0.8-1.7,1-2.5c0.1-0.4,0.2-0.8,0.3-1.3
									c0.1-0.5,0.2-0.9,0.2-1.4v-0.1l0.1-1.4c0-0.2,0-0.5,0-0.7c-0.1-5.2-2.9-10.2-7.7-13l-9.8-5.8l-2-1.2l-54-31.7l-2.7-1.6
									c-10.3-6-23.5-2.1-28.9,8.5C279.3,649.4,284.1,662.3,295,667z"/>
							</g>
						</g>
					</g>
				</g>
				<g>
					<g>
						<g>
							<g>
								<path class="st4" d="M213.2,632.7l-0.9,133.6l-0.1,16.3v4.5c19.5,20.7,59.3,23.4,88.4,11.2c7.6-3.2,14.5-7.4,20.1-12.6
									c0.4-0.4,0.8-0.7,1.2-1.1l-3.5-151.1C301.1,618,237.1,618.4,213.2,632.7z"/>
							</g>
						</g>
					</g>
				</g>
				<g>
					<g>
						<g>
							<g>
								<path class="st4" d="M365.1,687.7c0.3,2.2,1.2,4.2,2.6,5.9s3.3,3,5.6,3.7l0.8,0.2c3.3,1,6.8,0.5,9.5-1.2l0.1-0.1
									c0.7-0.4,1.3-0.9,1.9-1.5c1.5-1.4,2.6-3.2,3.2-5.3c0.1-0.2,0.1-0.4,0.2-0.6l0.1-0.4l0.1-0.3l0.3-1.5l0.2-0.9l0.4-1.9
									l11.1-56.8l0.7-2.3l-0.2-0.1l-11-8.3h-0.1l-3.1,8.2l-14.9,39.2l-0.4,1.1l-6.5,17.1C365,683.7,364.8,685.7,365.1,687.7z"/>
							</g>
						</g>
					</g>
				</g>
				<g>
					<g>
						<g>
							<g>
								<path class="st3" d="M250.6,581.6l-0.3,41c10.3,20.2,26.2,18.9,27.3,0.2c0-1-0.1-2.1-0.1-3.2c-0.1-1.6-0.2-3.2-0.4-4.9
									c-0.7-6.8-2-14.3-3.6-22.2c-0.1-0.3-0.1-0.6-0.2-0.9c-0.7-3.5-1.5-7-2.3-10.5L250.6,581.6z"/>
							</g>
						</g>
					</g>
				</g>
				<g>
					<g>
						<g>
							<g>
								<path class="st6" d="M267.2,643.1c0.9,0,1.7-0.1,2.6-0.3c7.2-1.5,11.8-9.1,12.4-20.3c0-0.5-0.3-0.9-0.8-0.9
									s-0.9,0.3-0.9,0.8c-0.6,10.4-4.7,17.4-11.1,18.8c-7.7,1.6-16.6-5.3-23.2-18.2c-0.2-0.4-0.7-0.6-1.1-0.4
									c-0.4,0.2-0.6,0.7-0.4,1.1C251,635.9,259.3,643.1,267.2,643.1z"/>
							</g>
						</g>
					</g>
				</g>
				<g>
					<g>
						<g>
							<g>
								<path class="st6" d="M257.2,594.5c0,0,4.7,15.4,19.9,20.2c-0.7-6.8-2-14.3-3.6-22.2c-0.1-0.3-0.1-0.6-0.2-0.9L257.2,594.5z"
									/>
							</g>
						</g>
					</g>
				</g>
				<g>
					<g>
						<g>
							<g>
								<path class="st3" d="M282.5,558.5c10,14.6,14.4,32.5,2.5,41.6c-18,8.4-32.4-7.8-43.6-24.6
									C252.7,557.7,266.3,551.3,282.5,558.5z"/>
							</g>
						</g>
					</g>
				</g>
				<g>
					<g>
						<g>
							<g>
								<path class="st6" d="M289.6,573.2c2.2-6.4,2.5-12.3-0.4-17.1c4.7-11.7,3.9-20.8-7.7-24.6c-7.3,7.6-14.2,11.7-20.9,11.3
									c4.5-4.3,7.3-8.9,8.1-13.9c-6.5,10.2-15,16.4-24.5,20.6c-5.3-0.4-7.5,2-5.6,7.9c-4.4,1.9-4.5,6.2-1,12.5
									c5.6,7.1,11.2,12.8,16.9,16.4c-0.1-5.8,0-11.2,0.7-15.8c2.4,3,4.7,5.3,6.3,5.2c2.3-1.4,0-7.3-3.3-14c9.4,6.6,17.5,7,23.8,0
									C285.6,564.7,288.1,568.5,289.6,573.2z"/>
							</g>
						</g>
					</g>
				</g>
				<g>
					<g>
						<g>
							<g>
								<path class="st3" d="M255,585c-6.4-14.7-14-13.7-17-8.9c-4.4,10,6.6,19.4,15.5,16.3L255,585z"/>
							</g>
						</g>
					</g>
				</g>
				<g>
					<g>
						<g>
							<g>
								<path class="st6" d="M248.8,583.3c0,0-3.3-8.8-8.2-3C240.6,580.3,245.5,579.4,248.8,583.3z"/>
							</g>
						</g>
					</g>
				</g>
				<g>
					<g>
						<g>
							<g>
								<path class="st3" d="M387.6,624.4c5,0.9,10.2,1.9,13.6,2.5l0.7-2.3l-11.2-8.4L387.6,624.4z"/>
							</g>
						</g>
					</g>
				</g>
				<g>
					<g>
						<g>
							<g>
								<polygon class="st6" points="382.1,953.2 393.9,975.4 396.3,979.9 407.7,976.5 406.4,971.4 400.4,947.8 400.3,947.7 
									394,949.6 394,949.6 393.5,949.8 389.6,951 								"/>
							</g>
						</g>
					</g>
				</g>
				<g>
					<g>
						<g>
							<g>
								<path class="st6" d="M393.7,975.2l6.2,20.4c0.7,2.4,3.2,3.7,5.6,3l34.8-10.5c2.7-0.8,2.8-4.7,0.1-5.6l-33.8-11.1
									C405.3,977.2,397.9,979.4,393.7,975.2z"/>
							</g>
						</g>
					</g>
				</g>
				<g>
					<g>
						<g>
							<g>
								<path class="st3" d="M319.6,832.6c0.3,2.4,1.1,4.9,2.3,7.2c1.9,3.7,3.9,7.6,6,11.6c4.4,8.5,9.1,17.5,13.9,26.6
									c11.2,21.4,22.8,43.3,31.8,59.6c3.3,6,6.2,11.2,8.6,15.4c0,0,0,0.1,0.1,0.1l7.5-2.3l3.9-1.2l0.5-0.2l0,0l6.3-1.9l0,0
									c-1.1-4.5-2.5-10.2-4.2-16.6C388.5,901,375,854,365,822.1c-1.4-4.5-4.1-8.2-7.5-11c-0.4-0.3-0.8-0.6-1.2-0.9
									c-1.6-1.1-3.4-2-5.3-2.7c-4.3-1.6-9.2-1.8-14-0.4l-1.3,0.4c-3.7,1.1-6.9,3-9.4,5.5C321.1,818.2,318.5,825.4,319.6,832.6z"/>
							</g>
						</g>
					</g>
				</g>
				<g>
					<g>
						<g>
							<g>
								<path class="st4" d="M179.8,737.3L179.8,737.3c0.2,0.2,0.3,0.3,0.4,0.4c0.5,0.5,1,0.9,1.5,1.3l2,1.4l9.5,6.5l19.2,13.3
									l12,8.3l9.1,6.3l6.6,4.5l0.1-0.1l5.4-7l2-2.6l0.1-0.1l-5.6-5.4l-29.6-28.9l-6.3-6.2l-2.1-2.1l-6.6-6.5
									c-2.5-2.4-5.7-3.5-8.9-3.3c-3.1,0.2-6.1,1.6-8.3,4.1l-0.5,0.6c-0.5,0.6-0.9,1.1-1.2,1.8C176,728.1,176.5,733.6,179.8,737.3z
									"/>
							</g>
						</g>
					</g>
				</g>
				<g>
					<g>
						<g>
							<g>
								<g>
									<path class="st3" d="M240.1,779.2c-2.6-2.1,4.8-11.5,7.8-9.4c0.2,0.1,20.7,2,17,4.3c-3.7,2.3-7.1,3.1-7.1,3.1
										s17.5,6.4,12.8,9.3C265.9,789.4,260.9,796,240.1,779.2z"/>
								</g>
							</g>
						</g>
					</g>
					<g>
						<g>
							<g>
								<g>
									<path class="st8" d="M239.5,779.9L239.5,779.9c-1.8-1.5-0.4-4.7,1.4-7c2.2-2.8,5.2-5.1,7.3-3.8c0.2,0,0.8,0.1,1.5,0.2
										c13.4,1.6,16.1,2.7,16.4,4.1c0.1,0.3,0.1,1-0.8,1.5c-1.9,1.2-3.7,1.9-5,2.4c4.3,1.7,11.6,5.1,11.9,7.9
										c0.1,0.6-0.1,1.4-1.2,2.1c-0.4,0.3-0.8,0.6-1.3,0.8c-2,1.4-4.4,3-8,3C257.1,791.1,250.3,788.6,239.5,779.9z M249.5,770.9
										c-1.9-0.2-1.9-0.2-2.1-0.4c-0.9-0.7-3.3,0.9-5.1,3.3c-1.7,2.2-2.2,4.2-1.6,4.7l0,0c18.5,14.8,23.8,11.1,28.2,8.1
										c0.5-0.3,0.9-0.6,1.3-0.9c0.3-0.2,0.4-0.3,0.4-0.5c-0.2-1.6-6.9-5.1-13-7.3c-0.4-0.1-0.6-0.5-0.6-0.8
										c0-0.4,0.3-0.7,0.6-0.8c0,0,3.1-0.8,6.6-2.8C263,773,259.4,772.1,249.5,770.9z M240,779.2L240,779.2L240,779.2z"/>
								</g>
							</g>
						</g>
					</g>
				</g>
				<g>
					<g>
						<g>
							<g>
								<path class="st3" d="M233.5,774.8l6.6,4.5l7.6-9.8l-5.6-5.4C240.2,766.5,236.5,771,233.5,774.8z"/>
							</g>
						</g>
					</g>
				</g>
			</g>
			<g>
				<g>
					<g>
						<g>
							<path class="st6" d="M350.9,808.5c0.4,0,0.8-0.3,0.8-0.7c0.1-0.5-0.2-0.9-0.7-1l-50.5-7.8c-0.5-0.1-0.9,0.2-1,0.7
								s0.2,0.9,0.7,1l50.5,7.8C350.8,808.5,350.9,808.5,350.9,808.5z"/>
						</g>
					</g>
				</g>
			</g>
			<g>
				<g>
					<g>
						<g>
							<path class="st6" d="M341.7,878.9c0.1,0,0.3,0,0.4-0.1c0.4-0.2,0.6-0.7,0.4-1.1l-9.3-17.8c-0.2-0.4-0.7-0.6-1.1-0.4
								c-0.4,0.2-0.6,0.7-0.4,1.1l9.3,17.8C341.1,878.7,341.4,878.9,341.7,878.9z"/>
						</g>
					</g>
				</g>
			</g>
			<g>
				<g>
					<g>
						<g>
							<path class="st6" d="M301.7,851.6L301.7,851.6l18-0.1c0.5,0,0.8-0.4,0.8-0.8c0-0.5-0.4-0.8-0.8-0.8l0,0l-18,0.1
								c-0.5,0-0.8,0.4-0.8,0.8C300.9,851.2,301.2,851.6,301.7,851.6z"/>
						</g>
					</g>
				</g>
			</g>
			<g>
				<g>
					<g>
						<g>
							<path class="st6" d="M264.2,806.9c1.1,0,2.1,0,3.2-0.1c21.4-0.7,41.5-8.4,53.9-20.5c0.3-0.3,0.3-0.9,0-1.2s-0.9-0.3-1.2,0
								c-24,23.5-79.3,29-107.3,1.5c-0.3-0.3-0.9-0.3-1.2,0s-0.3,0.9,0,1.2C224.1,800,243.1,806.9,264.2,806.9z"/>
						</g>
					</g>
				</g>
			</g>
			<g>
				<g>
					<g>
						<g>
							<path class="st6" d="M212.7,711.7c0.3,0,0.6-0.2,0.7-0.4l10-18.8c0.2-0.4,0.1-0.9-0.3-1.1c-0.4-0.2-0.9-0.1-1.1,0.3l-10,18.8
								c-0.2,0.4-0.1,0.9,0.3,1.1C212.5,711.7,212.6,711.7,212.7,711.7z"/>
						</g>
					</g>
				</g>
			</g>
			<g>
				<g>
					<g>
						<g>
							<path class="st6" d="M319.5,678.3L319.5,678.3c0.5,0,0.9-0.4,0.8-0.9l-0.3-13c0-0.5-0.5-0.8-0.9-0.8c-0.5,0-0.8,0.4-0.8,0.9
								l0.3,13C318.6,677.9,319,678.3,319.5,678.3z"/>
						</g>
					</g>
				</g>
			</g>
			<g>
				<g>
					<g>
						<g>
							<path class="st6" d="M308.7,947.5c0.6,6.8,1.3,12.7,1.8,17.5l18.9,2.1c0.8-4.6,1.7-10.4,2.7-17L308.7,947.5z"/>
						</g>
					</g>
				</g>
			</g>
			<g>
				<g>
					<g>
						<g>
							<path class="st6" d="M373.5,937.7c3.3,6,6.2,11.2,8.6,15.4l11.9-3.5l0,0l6.3-1.8v-0.1l0,0c-1.1-4.5-2.5-10.2-4.2-16.6
								L373.5,937.7z"/>
						</g>
					</g>
				</g>
			</g>
			<g>
				<g>
					<g>
						<g>
							<path class="st3" d="M382.6,935.9c0.1,0,0.2,0,0.3,0c0.4-0.2,0.7-0.6,0.5-1.1c-1.1-3.3-28.1-80.3-40-95.2
								c-12.1-15.1-118.7-14.1-123.3-14.1c-0.5,0-0.8,0.4-0.8,0.9s0.4,0.8,0.8,0.8l0,0c1.1,0,110.4-1,121.9,13.5
								c11.7,14.7,39.4,93.9,39.7,94.7C381.9,935.7,382.2,935.9,382.6,935.9z"/>
						</g>
					</g>
				</g>
			</g>
			<g>
				<g>
					<g>
						<g>
							<path class="st3" d="M213.7,736.4"/>
						</g>
					</g>
				</g>
			</g>
			<g>
				<g>
					<g>
						<g>
							<path class="st6" d="M267.8,638.2c9.5,0,10.6-14.7,10.7-15.4c0-0.5-0.3-0.9-0.8-0.9s-0.9,0.3-0.9,0.8c0,0.1-1.1,13.8-9,13.8
								c-0.1,0-0.1,0-0.2,0c-8.4-0.3-16.4-14.2-16.5-14.3c-0.2-0.4-0.7-0.6-1.2-0.3c-0.4,0.2-0.6,0.7-0.3,1.2
								c0.3,0.6,8.5,14.9,17.9,15.2C267.6,638.2,267.7,638.2,267.8,638.2z"/>
						</g>
					</g>
				</g>
			</g>
			<g>
				<g>
					<g>
						<g>
							<line class="st9" x1="212.6" y1="735.2" x2="247.7" y2="769.6"/>
						</g>
					</g>
				</g>
				<g>
					<g>
						<g>
							<path class="st8" d="M247.7,770.4c0.2,0,0.4-0.1,0.6-0.3c0.3-0.3,0.3-0.9,0-1.2l-35.1-34.3c-0.3-0.3-0.9-0.3-1.2,0
								s-0.3,0.9,0,1.2l35.1,34.3C247.2,770.3,247.5,770.4,247.7,770.4z"/>
						</g>
					</g>
				</g>
			</g>
			<g>
				<g>
					<g>
						<g>
							<line class="st9" x1="212.4" y1="760.2" x2="240.1" y2="779.3"/>
						</g>
					</g>
				</g>
				<g>
					<g>
						<g>
							<path class="st8" d="M240.1,780.2c0.3,0,0.5-0.1,0.7-0.4c0.3-0.4,0.2-0.9-0.2-1.2l-27.7-19.1c-0.4-0.3-0.9-0.2-1.2,0.2
								s-0.2,0.9,0.2,1.2l27.7,19.1C239.8,780.1,239.9,780.2,240.1,780.2z"/>
						</g>
					</g>
				</g>
			</g>
			<g>
				<g>
					<g>
						<g>
							<line class="st9" x1="372.7" y1="663.6" x2="373.6" y2="672.4"/>
						</g>
					</g>
				</g>
				<g>
					<g>
						<g>
							<path class="st8" d="M373.6,673.2C373.7,673.2,373.7,673.2,373.6,673.2c0.6-0.1,0.9-0.5,0.8-0.9l-1-8.8
								c-0.1-0.5-0.5-0.8-0.9-0.7c-0.5,0.1-0.8,0.5-0.7,0.9l1,8.8C372.9,672.9,373.2,673.2,373.6,673.2z"/>
						</g>
					</g>
				</g>
			</g>
			<g>
				<g>
					<g>
						<g>
							<line class="st9" x1="204.3" y1="727" x2="197.4" y2="727.5"/>
						</g>
					</g>
				</g>
				<g>
					<g>
						<g>
							<path class="st8" d="M197.4,728.4C197.4,728.4,197.5,728.4,197.4,728.4l6.9-0.5c0.5,0,0.8-0.4,0.8-0.9s-0.5-0.8-0.9-0.8
								l-6.8,0.5c-0.5,0-0.8,0.4-0.8,0.9C196.6,728,197,728.4,197.4,728.4z"/>
						</g>
					</g>
				</g>
			</g>
			<g>
				<g>
					<g>
						<g>
							<path class="st6" d="M350.2,1020.7l-36.1-4c-1.4-0.2-2.7-0.9-3.6-2s-1.3-2.5-1.1-3.9l2.3-21.2c0-0.1,0-0.1,0-0.2l-2.1-24.4
								c0-0.1,0-0.1,0-0.2c-2.7-24-7-75.4-9.8-113.4c-30.4-1.2-55-3.6-73.4-7.1c-9.6-1.8-16.4-10.2-16.2-19.9l0.7-42
								c0-0.2,0.1-0.5,0.3-0.6c0,0,0,0,0.1,0l0.1-21.2l-30.3-20.9c-0.5-0.4-1-0.8-1.5-1.4c-4.1-2.4-7-6.3-7.9-11
								c-0.6-3-0.4-6.2,0.7-9.1l28.3-74.2c2.3-6,7.1-10.6,13-12.6c7.4-4.1,18.3-7.2,31.6-9c1.3-0.2,2.7-0.3,4-0.5l0.2-28.2
								c-4.3-0.1-8.7-2.4-11.3-6.1c-2.5-3.6-2.9-7.9-1.1-12c0.6-0.9,1.3-1.7,2.1-2.3c-0.8-0.9-1.6-1.9-2.4-3
								c-2.3-4.2-3.1-7.5-2.2-10c0.5-1.4,1.5-2.6,3-3.4c-0.8-2.9-0.6-5,0.6-6.5c1.1-1.4,3.1-2,6-1.8c10.6-4.8,18.2-11.3,23.9-20.2
								c0.2-0.3,0.6-0.5,1-0.3c0.4,0.1,0.6,0.5,0.5,0.9c-0.7,4.5-3,8.8-6.9,12.9c5.5-0.5,11.7-4.2,18.2-11c0.2-0.2,0.6-0.3,0.9-0.2
								c4.8,1.6,8.1,4.2,9.7,7.7c2,4.4,1.6,10.2-1.4,17.7c2.4,4.3,2.6,9.7,0.5,16.4c4.4,12.4,2.5,22.4-5.2,28.3c0,0-0.1,0.1-0.2,0.1
								c-3,1.4-6,2.2-9,2.3c0.7,4.4,1.3,8.1,1.6,11.5c0.2,1.7,0.3,3.3,0.4,4.9c0,0.6,0.1,1.2,0.1,1.8c1,0.1,2,0.1,3,0.2
								c0.1,0,0.1,0,0.2,0c15.7,1.2,28.2,4.6,35.2,9.5l55.1,32.3l18.1-47.5c0-0.1,0.1-0.2,0.2-0.3c0.4-1.1,1.1-1.6,1.6-1.8
								c0.2-0.2,0.6-0.6,1.1-1.1c9.4-9.7,11.9-11.1,13.2-10.5c0.3,0.1,0.8,0.6,0.7,1.6c-0.2,2.2-0.7,4.1-1.1,5.4
								c4-2.4,11.1-6.1,13.5-4.6c0.5,0.3,1.1,0.9,0.9,2.2c0,0.5-0.1,1-0.1,1.5c-0.2,4.8-0.6,11.3-17.3,16.8l-0.6,2l-11.4,58.5v0.2
								c-0.1,0.5-0.1,1-0.2,1.5c0,0.2-0.1,0.4-0.2,0.6L390,689c-0.1,0.2-0.1,0.4-0.2,0.6c-0.6,2.2-1.8,4.1-3.4,5.7
								c-0.5,0.5-1.2,1-1.9,1.4c-1.3,1-2.8,1.9-4.3,2.5c-4,1.6-8.4,1.5-12.4-0.2l-47.4-20.3l2.4,105.8c0,0.2-0.1,0.4-0.2,0.6
								c3.6,0.6,7,1.2,10,1.8c5.4,1,10.3,3.8,13.9,8.1c2.9,3.5,4.7,7.6,5.3,12.1c2.3,0.9,4.4,2.1,6.2,3.6c0.3,0.3,0.6,0.5,1,0.8
								l0.2,0.2c3.1,2.8,5.4,6.4,6.6,10.3c12.4,39.5,29.6,100.4,35.4,125.5c0,0,0,0,0,0.1l5.9,23l33.4,11c1.6,0.5,2.6,1.9,2.6,3.6
								s-1.1,3.1-2.7,3.5l-34.8,10.5c-2.8,0.8-5.8-0.7-6.6-3.5l-6.2-20.4c0-0.1,0-0.1,0-0.2l-11.5-21.6c0-0.1-0.1-0.2-0.1-0.3
								c-7.8-13.7-22.3-40.7-39-72.5c-4.2,35.1-8.9,69.5-11.9,86.4l-3.6,23.6l26.4,23.3c1.3,1.1,1.6,2.8,1,4.3
								c-0.6,1.4-1.9,2.2-3.4,2.2C350.5,1020.7,350.3,1020.7,350.2,1020.7z M325.5,992.1c-0.4-0.1-0.6-0.5-0.5-0.9l3.7-24.2
								c3-17.3,7.9-53.1,12.2-89c0-0.4,0.3-0.7,0.7-0.7c0.4-0.1,0.7,0.1,0.9,0.4c17.3,33.1,32.4,61.2,40.4,75.1
								c0.1,0.1,0.1,0.2,0.1,0.3l11.7,21.8c0.1,0.2,0.1,0.4,0.1,0.6l6,19.8c0.6,1.9,2.6,3,4.5,2.4l34.8-10.5
								c1.1-0.3,1.5-1.2,1.5-1.9c0-0.7-0.4-1.6-1.4-2l-33.5-11c0,0,0,0-0.1,0c-0.4,0-0.8-0.3-0.8-0.6l-6.1-23.7v-0.1
								c-5.9-25-23-85.9-35.4-125.3c-1.1-3.7-3.3-7-6.2-9.6l-0.2-0.1c-0.3-0.3-0.6-0.5-0.9-0.8c-1.9-1.5-4-2.7-6.3-3.6
								c-0.3-0.1-0.5-0.4-0.6-0.7c-0.4-4.3-2.2-8.3-4.9-11.7c-3.3-3.9-7.8-6.6-12.9-7.5c-3.5-0.6-7.4-1.3-11.7-2.1
								c-0.3-0.1-0.6-0.3-0.7-0.6s0-0.6,0.2-0.9c0.3-0.3,0.6-0.6,0.9-0.8l-2.4-106.8c0-0.3,0.1-0.6,0.4-0.7c0.2-0.2,0.5-0.2,0.8-0.1
								l48.6,20.8c3.6,1.5,7.5,1.6,11.1,0.2c1.4-0.5,2.7-1.3,3.9-2.3c0.7-0.4,1.2-0.8,1.7-1.3c1.4-1.3,2.4-3,3-4.9
								c0.1-0.2,0.1-0.4,0.1-0.5l0.3-1.2c0-0.2,0.1-0.3,0.1-0.5c0.1-0.4,0.2-0.9,0.2-1.3l11.5-59l0.6-1.8c-0.1-0.1-0.1-0.3-0.1-0.5
								c0.1-0.3,0.3-0.6,0.6-0.7c16.2-5.2,16.5-10.9,16.8-15.5c0-0.6,0.1-1.1,0.1-1.6c0-0.3,0-0.5-0.1-0.6
								c-1.4-0.9-8.2,2.4-13.8,5.9c-0.3,0.2-0.7,0.2-1-0.1c-0.3-0.2-0.4-0.6-0.2-1c0,0,1.3-2.9,1.8-7c-1.2,0.5-4,2.9-11,10
								c-1.3,1.4-1.3,1.4-1.6,1.5c-0.4,0.1-0.6,0.5-0.8,1.1c0,0.1-0.1,0.3-0.2,0.4l-18.3,48.1c-0.1,0.2-0.3,0.4-0.5,0.5
								s-0.5,0.1-0.7-0.1l-56-32.9c-6.8-4.7-19.1-8-34.5-9.2c0,0,0,0-0.1,0l0,0c-1.2-0.1-2.5-0.2-3.7-0.2c-0.4,0-0.8-0.4-0.8-0.8
								c0-0.8,0-1.7-0.1-2.5c-0.1-1.6-0.2-3.2-0.4-4.8c-0.4-3.5-0.9-7.6-1.7-12.3c0-0.2,0-0.5,0.2-0.7s0.4-0.3,0.6-0.3
								c3.1,0,6.2-0.7,9.2-2.2c9.5-7.3,6.9-19.8,4.4-26.6c-0.1-0.2-0.1-0.4,0-0.5c2.1-6.6,1.9-11.7-0.5-15.7
								c-0.1-0.2-0.2-0.5-0.1-0.8c2.9-7.2,3.4-12.7,1.5-16.7c-1.4-3-4.1-5.1-8.2-6.6c-7.7,7.9-14.6,11.6-21.2,11.2
								c-0.3,0-0.6-0.2-0.7-0.6c-0.1-0.3,0-0.7,0.2-0.9c2.9-2.8,5.1-5.7,6.4-8.6c-5.6,7.1-12.6,12.5-21.8,16.7
								c-0.1,0.1-0.3,0.1-0.4,0.1c-2.4-0.2-3.9,0.2-4.7,1.2c-0.9,1.1-0.9,2.9-0.1,5.6c0.1,0.4-0.1,0.9-0.5,1
								c-1.4,0.6-2.3,1.5-2.7,2.7c-0.7,2,0,4.9,2,8.5c1,1.3,2,2.5,3,3.6c0.2,0.2,0.2,0.5,0.2,0.7c0,0.3-0.2,0.5-0.4,0.6
								c-0.9,0.5-1.8,1.2-2.3,2.1c-1.5,3.5-1.2,7.2,1,10.3c2.4,3.5,6.6,5.6,10.7,5.4c0.2,0,0.5,0.1,0.6,0.2c0.2,0.2,0.3,0.4,0.3,0.6
								l-0.2,29.4l0,0c0.1,0.2,0.1,0.5,0,0.8c-0.1,0.2-0.4,0.4-0.7,0.4c-1.6,0.2-3.2,0.3-4.9,0.6c-13.1,1.7-23.8,4.7-31.1,8.8
								c-5.6,1.9-10,6.2-12.1,11.7L174,718.7l0,0c-1,2.6-1.2,5.4-0.7,8.2c0.8,4.2,3.5,7.8,7.2,9.9c0.1,0,0.1,0.1,0.2,0.2
								c0.5,0.5,0.9,0.9,1.4,1.2l30.7,21.2c0.2,0.2,0.4,0.4,0.4,0.7l-0.2,22.4c0,0.2-0.1,0.5-0.3,0.6c0,0,0,0-0.1,0l-0.7,41.2
								c-0.2,8.9,6.1,16.6,14.8,18.2c18.4,3.5,43.2,5.8,73.9,7.1c0.4,0,0.8,0.4,0.8,0.8c2.8,38.2,7.2,90.3,9.9,114.3
								c0,0.1,0,0.1,0,0.2l2.2,24.8c0,0.2,0,0.4-0.2,0.5l-2.3,20.6c-0.1,1,0.2,1.9,0.8,2.7c0.6,0.8,1.5,1.2,2.4,1.3l36.1,4
								c1.1,0.1,1.8-0.5,2.1-1.2c0.3-0.7,0.3-1.6-0.5-2.4L325.5,992.1L325.5,992.1z M212,735.8l-8.4-8.3c-0.3-0.3-0.3-0.7-0.2-1
								l8.6-16.1c0.2-0.3,0.6-0.5,1-0.4s0.6,0.4,0.6,0.8l-0.2,24.4c0,0.3-0.2,0.6-0.5,0.8c-0.1,0-0.2,0.1-0.3,0.1
								C212.3,736.1,212.1,736,212,735.8z M205.2,726.8l6.6,6.4l0.1-18.9L205.2,726.8z"/>
						</g>
					</g>
				</g>
			</g>
		</g>
		<g>
			<g>
				<path class="st4" d="M293.1,1020.7h-82.2v-7.1c0-2.9,2.4-5.3,5.3-5.3h71.6c2.9,0,5.3,2.4,5.3,5.3V1020.7z"/>
			</g>
			<g>
				<path class="st3" d="M293.1,1021.6h-82.2c-0.5,0-0.9-0.4-0.9-0.9v-2.7c0-5.8,4.7-10.6,10.5-10.6h62.9c5.8,0,10.6,4.7,10.6,10.6
					v2.7C294,1021.2,293.6,1021.6,293.1,1021.6z M211.8,1019.8h80.4v-1.8c0-4.8-3.9-8.7-8.7-8.7h-62.9c-4.8,0-8.7,3.9-8.7,8.7v1.8
					H211.8z"/>
			</g>
		</g>
		<g>
			<g>
				<g>
					<path class="st4" d="M435.8,503.5v50.8c0,7.8-6.3,14.1-14.1,14.1h-73.5L328.7,580l-0.3-22.1l-0.5-35.7v-18.6
						c0-7.8,6.3-14.1,14.1-14.1h79.5C429.5,489.4,435.8,495.7,435.8,503.5z"/>
				</g>
				<g>
					<path class="st3" d="M328.7,580.9c-0.2,0-0.3,0-0.4-0.1c-0.3-0.2-0.5-0.5-0.5-0.8l-0.8-57.8v-18.6c0-8.3,6.7-15,15-15h79.5
						c8.3,0,15,6.7,15,15v50.8c0,8.3-6.7,15-15,15h-73.2l-19.2,11.4C329.1,580.9,328.9,580.9,328.7,580.9z M342.1,490.3
						c-7.3,0-13.2,5.9-13.2,13.2v18.6l0.8,56.3l18.1-10.7c0.1-0.1,0.3-0.1,0.5-0.1h73.5c7.3,0,13.2-5.9,13.2-13.2v-50.8
						c0-7.3-5.9-13.2-13.2-13.2L342.1,490.3L342.1,490.3z"/>
				</g>
			</g>
			<g>
				<g>
					<circle class="st4" cx="354.5" cy="530.4" r="7.3"/>
				</g>
				<g>
					<path class="st3" d="M354.5,538.6c-4.5,0-8.2-3.7-8.2-8.2s3.7-8.2,8.2-8.2s8.2,3.7,8.2,8.2S359,538.6,354.5,538.6z
						 M354.5,524.1c-3.5,0-6.4,2.9-6.4,6.4s2.9,6.4,6.4,6.4s6.4-2.9,6.4-6.4C360.9,526.9,358,524.1,354.5,524.1z"/>
				</g>
			</g>
			<g>
				<g>
					<circle class="st4" cx="409.3" cy="530.4" r="7.3"/>
				</g>
				<g>
					<path class="st3" d="M409.3,538.6c-4.5,0-8.2-3.7-8.2-8.2s3.7-8.2,8.2-8.2s8.2,3.7,8.2,8.2S413.8,538.6,409.3,538.6z
						 M409.3,524.1c-3.5,0-6.4,2.9-6.4,6.4s2.9,6.4,6.4,6.4s6.4-2.9,6.4-6.4C415.7,526.9,412.8,524.1,409.3,524.1z"/>
				</g>
			</g>
			<g>
				<g>
					<circle class="st4" cx="381.9" cy="530.4" r="7.3"/>
				</g>
				<g>
					<path class="st3" d="M381.9,538.6c-4.5,0-8.2-3.7-8.2-8.2s3.7-8.2,8.2-8.2s8.2,3.7,8.2,8.2S386.4,538.6,381.9,538.6z
						 M381.9,524.1c-3.5,0-6.4,2.9-6.4,6.4s2.9,6.4,6.4,6.4s6.4-2.9,6.4-6.4C388.3,526.9,385.4,524.1,381.9,524.1z"/>
				</g>
			</g>
		</g>
		<g>
			<g>
				<g>
					<path class="st4" d="M128.3,549v39c0,6,4.9,10.9,10.9,10.9h56.4l14.9,8.9l0.2-17l0.4-27.5V549c0-6-4.9-10.9-10.9-10.9h-61.1
						C133.2,538.1,128.3,543,128.3,549z"/>
				</g>
				<g>
					<path class="st3" d="M210.5,608.6c-0.2,0-0.3,0-0.5-0.1l-14.7-8.7h-56.2c-6.5,0-11.8-5.3-11.8-11.8v-39
						c0-6.5,5.3-11.8,11.8-11.8h61.1c6.5,0,11.8,5.3,11.8,11.8v14.3l-0.6,44.4c0,0.3-0.2,0.6-0.5,0.8
						C210.8,608.6,210.7,608.6,210.5,608.6z M139.2,539c-5.5,0-10,4.5-10,10v39c0,5.5,4.5,10,10,10h56.4c0.2,0,0.3,0,0.5,0.1
						l13.6,8.1l0.6-42.9V549c0-5.5-4.5-10-10-10H139.2z"/>
				</g>
			</g>
			<g>
				<g>
					<circle class="st4" cx="190.8" cy="569.7" r="5.6"/>
				</g>
				<g>
					<path class="st3" d="M190.8,576.2c-3.6,0-6.5-2.9-6.5-6.5s2.9-6.5,6.5-6.5s6.5,2.9,6.5,6.5
						C197.3,573.2,194.4,576.2,190.8,576.2z M190.8,565c-2.6,0-4.7,2.1-4.7,4.7s2.1,4.7,4.7,4.7c2.6,0,4.7-2.1,4.7-4.7
						S193.4,565,190.8,565z"/>
				</g>
			</g>
			<g>
				<g>
					<circle class="st3" cx="169" cy="569.7" r="6.4"/>
				</g>
			</g>
			<g>
				<g>
					<circle class="st4" cx="148.7" cy="569.7" r="5.6"/>
				</g>
				<g>
					<path class="st3" d="M148.7,576.2c-3.6,0-6.5-2.9-6.5-6.5s2.9-6.5,6.5-6.5s6.5,2.9,6.5,6.5
						C155.2,573.2,152.2,576.2,148.7,576.2z M148.7,565c-2.6,0-4.7,2.1-4.7,4.7s2.1,4.7,4.7,4.7s4.7-2.1,4.7-4.7
						S151.2,565,148.7,565z"/>
				</g>
			</g>
		</g>
		<g>
			<g>
				<path class="st4" d="M529,793.9H365.9c-0.7,0-1.3-0.6-1.3-1.3v-8.1c0-0.7,0.6-1.3,1.3-1.3H529c0.7,0,1.3,0.6,1.3,1.3v8.1
					C530.3,793.3,529.7,793.9,529,793.9z"/>
			</g>
			<g>
				<path class="st3" d="M527.9,794.8H367c-1.8,0-3.3-1.5-3.3-3.3v-6c0-1.8,1.5-3.3,3.3-3.3h161c1.8,0,3.3,1.5,3.3,3.3v6
					C531.2,793.3,529.7,794.8,527.9,794.8z M367,784c-0.8,0-1.5,0.7-1.5,1.5v6c0,0.8,0.7,1.5,1.5,1.5h161c0.8,0,1.5-0.7,1.5-1.5v-6
					c0-0.8-0.7-1.5-1.5-1.5H367z"/>
			</g>
		</g>
		<g>
			<g>
				<polygon class="st4" points="354.3,1019.9 359.7,1020.7 404.7,808.9 379.8,814.7 				"/>
			</g>
			<g>
				<path class="st3" d="M359.7,1021.6h-0.1l-5.5-0.8c-0.5-0.1-0.8-0.5-0.8-1l25.5-205.2c0-0.4,0.3-0.7,0.7-0.8l24.9-5.9
					c0.3-0.1,0.6,0,0.8,0.2c0.2,0.2,0.3,0.5,0.3,0.8l-45,211.8C360.5,1021.3,360.2,1021.6,359.7,1021.6z M355.3,1019.1l3.7,0.5
					L403.5,810l-22.9,5.4L355.3,1019.1z"/>
			</g>
		</g>
		<g>
			<g>
				<path class="st4" d="M692.7,818.7H292.2c-2.9,0-5.3-2.4-5.3-5.3v-12.2c0-2.9,2.4-5.3,5.3-5.3h400.5c2.9,0,5.3,2.4,5.3,5.3v12.2
					C698,816.4,695.6,818.7,692.7,818.7z"/>
			</g>
			<g>
				<path class="st3" d="M688.3,819.6H296.6c-5.8,0-10.6-4.8-10.6-10.6v-3.5c0-5.8,4.8-10.6,10.6-10.6h391.8
					c5.8,0,10.6,4.8,10.6,10.6v3.5C698.9,814.9,694.2,819.6,688.3,819.6z M296.6,796.8c-4.8,0-8.8,3.9-8.8,8.8v3.5
					c0,4.8,3.9,8.8,8.8,8.8h391.8c4.8,0,8.8-3.9,8.8-8.8v-3.5c0-4.8-3.9-8.8-8.8-8.8H296.6z"/>
			</g>
		</g>
		<g>
			<g>
				<path class="st4" d="M526.5,793.6H411.3l12.3-87.7c0.3-1.9,1.9-3.3,3.7-3.3h110.8c2.3,0,4.1,2,3.7,4.3l-11.7,83.4
					C530,792.2,528.4,793.6,526.5,793.6z"/>
			</g>
			<g>
				<path class="st3" d="M526.5,794.5H411.3c-0.3,0-0.5-0.1-0.7-0.3s-0.3-0.5-0.2-0.7l12.3-87.7c0.3-2.3,2.3-4,4.6-4h110.8
					c1.4,0,2.6,0.6,3.5,1.6s1.3,2.4,1.1,3.7L531,790.5C530.8,792.8,528.8,794.5,526.5,794.5z M412.4,792.7h114.1
					c1.4,0,2.6-1.1,2.8-2.5l11.7-83.4c0.1-0.8-0.1-1.7-0.7-2.3c-0.5-0.6-1.3-1-2.2-1H427.4c-1.4,0-2.6,1.1-2.8,2.5L412.4,792.7z"/>
			</g>
		</g>
		<g>
			<g>
				<circle class="st3" cx="480.4" cy="746.6" r="12"/>
			</g>
		</g>
		<g>
			<g>
				<line class="st9" x1="555.5" y1="593.2" x2="715.5" y2="593.2"/>
			</g>
			<g>
				<path class="st3" d="M715.5,594.1h-160c-0.5,0-0.9-0.4-0.9-0.9s0.4-0.9,0.9-0.9h160c0.5,0,0.9,0.4,0.9,0.9
					S716,594.1,715.5,594.1z"/>
			</g>
		</g>
		<g>
			<g>
				<line class="st9" x1="555.5" y1="606" x2="674.4" y2="606"/>
			</g>
			<g>
				<path class="st3" d="M674.4,606.9H555.5c-0.5,0-0.9-0.4-0.9-0.9s0.4-0.9,0.9-0.9h118.9c0.5,0,0.9,0.4,0.9,0.9
					C675.3,606.5,674.9,606.9,674.4,606.9z"/>
			</g>
		</g>
		<g>
			<g>
				
					<ellipse transform="matrix(0.9871 -0.1601 0.1601 0.9871 -96.6793 92.8858)" class="st4" cx="528" cy="646.3" rx="16.6" ry="16.6"/>
			</g>
			<g>
				<path class="st3" d="M528,663.8c-9.7,0-17.6-7.9-17.6-17.6c0-9.7,7.9-17.6,17.6-17.6s17.6,7.9,17.6,17.6
					C545.5,656,537.7,663.8,528,663.8z M528,630.5c-8.7,0-15.7,7.1-15.7,15.7s7,15.8,15.7,15.8s15.7-7.1,15.7-15.7
					S536.7,630.5,528,630.5z"/>
			</g>
		</g>
		<g>
			<g>
				<line class="st9" x1="555.1" y1="639.7" x2="715.1" y2="639.7"/>
			</g>
			<g>
				<path class="st3" d="M715.1,640.6h-160c-0.5,0-0.9-0.4-0.9-0.9s0.4-0.9,0.9-0.9h160c0.5,0,0.9,0.4,0.9,0.9
					C716,640.2,715.6,640.6,715.1,640.6z"/>
			</g>
		</g>
		<g>
			<g>
				<line class="st9" x1="555.1" y1="652.5" x2="674" y2="652.5"/>
			</g>
			<g>
				<path class="st3" d="M674,653.4H555.1c-0.5,0-0.9-0.4-0.9-0.9s0.4-0.9,0.9-0.9H674c0.5,0,0.9,0.4,0.9,0.9S674.5,653.4,674,653.4
					z"/>
			</g>
		</g>
		<g>
			<g>
				<g>
					<circle class="st4" cx="737" cy="480.9" r="21.5"/>
				</g>
				<g>
					<path class="st3" d="M737,503.3c-12.4,0-22.4-10.1-22.4-22.4s10.1-22.4,22.4-22.4s22.4,10.1,22.4,22.4S749.4,503.3,737,503.3z
						 M737,460.3c-11.4,0-20.6,9.2-20.6,20.6s9.2,20.6,20.6,20.6s20.6-9.2,20.6-20.6S748.4,460.3,737,460.3z"/>
				</g>
			</g>
			<g>
				<g>
					<polyline class="st4" points="732.2,484.4 735.1,486.8 750.8,476.5 					"/>
				</g>
				<g>
					<path class="st3" d="M735.1,488.3c-0.1,0-0.3,0-0.4-0.1l-2.4-2c-0.7-0.5-2.8-1.8-2.3-2.4c0.3-0.5,2.5,1,2.9,1.2l2,1.4l8.9-11.5
						c0.2-0.3,1.5-1.4,1.8-1s0.2,0.9-0.8,2.4l-9.2,11.9C735.3,488.2,735.2,488.3,735.1,488.3z"/>
				</g>
			</g>
		</g>
	</g>
	<g>
		<circle class="st10" cx="266.8" cy="581.2" r="6.4"/>
		<circle class="st10" cx="282" cy="576.7" r="6.4"/>
		<path class="st4" d="M283.2,592.3l-8.5,2.4C274.6,594.7,279.6,598.4,283.2,592.3z"/>
		<polyline class="st11" points="276.5,584.6 278.6,589.9 276.5,589.9 		"/>
	</g>
</g>
<g>
	<g>
		<polygon class="st3" points="641.5,292.9 639,268.8 711.5,244 		"/>
		<polygon class="st12" points="711.5,244 659.9,295.6 644.1,275.7 		"/>
		<polygon class="st12" points="711.5,244 639,268.8 623.8,249.9 		"/>
		<polygon class="st12" points="644.1,275.7 641.5,292.9 651,284.4 		"/>
	</g>
	<g>
		<g>
			<path class="st13" d="M635.6,282.7c-0.4,0.3-0.8,0.5-1.2,0.8"/>
			<path class="st14" d="M629.7,286.5c-13.1,7.9-28.7,14-44,12.2c-17.3-2-29.4-14.3-48.4-10.5c-17.2,3.5-32.1,17.7-36.5,34.7
				c-3,11.5,0.1,25,9.6,32.2c24.1,18.3,51.1-10,51.1-44.9c0-44.6-57.6-82.8-140.1-89.3c-99.9-7.8-231.8,64.7-273.8,213.4"/>
			<path class="st13" d="M146.9,437.1c-0.1,0.5-0.2,0.9-0.4,1.4"/>
		</g>
	</g>
</g>
<path class="st15" d="M114.6,165.2h179.8c-8.7-14-27.8-21.1-43.9-17.8c-6.8,1.4-13.9,4.5-20.3,2c-10.1-4-11.3-18.7-20.4-24.7
	c-4.4-2.9-10-3.3-15.2-2.7c-9.1,1-17.8,4.9-24.6,11c-7.1,6.3-14.5,15.6-23.6,13.2c-4.4-1.1-7.7-4.9-12-6.4
	c-6.5-2.4-13.7,0.8-19.3,4.8s-10.8,9.1-17.3,11.2c-12.8,4.2-28.6,1.5-39.4,9.5C76.9,165,96.6,165.2,114.6,165.2z"/>
<path class="st15" d="M669.6,102.5h120.7c-5.9-9.4-18.6-14.2-29.5-11.9c-4.5,0.9-9.3,3-13.6,1.3c-6.8-2.7-7.6-12.5-13.7-16.6
	c-2.9-2-6.7-2.2-10.2-1.8c-6.1,0.7-11.9,3.3-16.5,7.4c-4.7,4.2-9.7,10.5-15.9,8.9c-3-0.8-5.2-3.3-8-4.3c-4.4-1.6-9.2,0.5-13,3.2
	s-7.2,6.1-11.6,7.5c-8.6,2.8-19.2,1-26.4,6.3C644.3,102.4,657.5,102.5,669.6,102.5z"/>
<g>
	<path class="st3" d="M571.3,538.9c-0.4,0.1-0.8-0.2-0.9-0.6c-0.1-0.4,0.2-0.8,0.6-0.9l23.6-5.8l44.9-41.7c0.3-0.3,0.8-0.3,1.1,0
		l0.1,0.1l28.2,44.8c0.2,0.4,0.1,0.8-0.2,1c-0.4,0.2-0.8,0.1-1-0.2l-27.8-44l-44.4,41.3c-0.1,0.1-0.2,0.1-0.3,0.2L571.3,538.9z"/>
	<path class="st3" d="M639.6,489.8c0.4-0.2,0.8,0,1,0.4s0,0.8-0.4,1l-28.6,13.9c-0.4,0.2-0.8,0-1-0.4s0-0.8,0.4-1L639.6,489.8z"/>
	<path class="st3" d="M596.7,522.3l19.3-18l-23,4.6l-8.6,5v12.7L596.7,522.3z M618.9,503.5l-21.3,19.9c-0.1,0.1-0.2,0.1-0.3,0.2
		l-13.4,4.7c-0.4,0.1-0.8-0.1-1-0.5c0-0.1,0-0.2,0-0.2l0,0v-14.2c0-0.3,0.2-0.5,0.4-0.7l9.1-5.3c0.1,0,0.2-0.1,0.3-0.1l25.7-5.1
		c0.4-0.1,0.8,0.2,0.9,0.6C619.2,503.1,619.1,503.4,618.9,503.5z"/>
	<path class="st3" d="M592.3,507.4c0.4-0.2,0.8-0.1,1,0.3c0.2,0.4,0.1,0.8-0.3,1l-15,8.8c-0.4,0.2-0.8,0.1-1-0.3
		c-0.2-0.4-0.1-0.8,0.3-1L592.3,507.4z"/>
	<path class="st3" d="M588.4,522.3l0.2-4.7l-1.7,0.9l-0.1,4.5L588.4,522.3z M590.1,516.3l-0.2,6.5c0,0.3-0.2,0.6-0.5,0.7l-3.2,1.2
		c-0.4,0.1-0.8,0-1-0.4c0-0.1-0.1-0.2,0-0.3l0.1-6c0-0.3,0.2-0.5,0.4-0.7l3.2-1.7c0.4-0.2,0.8,0,1,0.3
		C590.1,516.1,590.2,516.2,590.1,516.3z"/>
	<path class="st3" d="M595,519.9l0.2-5.3l-2,1.1l-0.1,5L595,519.9z M596.7,513.4l-0.2,7.1c0,0.3-0.2,0.6-0.5,0.7l-3.5,1.3
		c-0.4,0.1-0.8,0-1-0.4c0-0.1-0.1-0.2,0-0.3l0.2-6.5c0-0.3,0.2-0.5,0.4-0.7l3.5-1.8c0.4-0.2,0.8,0,1,0.3
		C596.7,513.1,596.7,513.3,596.7,513.4z"/>
	<path class="st3" d="M600.3,520.6c0,0.4-0.3,0.8-0.8,0.8c-0.4,0-0.8-0.3-0.8-0.8v-13.8c0-0.4,0.3-0.8,0.8-0.8
		c0.4,0,0.8,0.3,0.8,0.8V520.6z"/>
	<path class="st3" d="M599.2,508.4c0.4-0.2,0.8,0,1,0.3c0.2,0.4,0,0.8-0.3,1l-15.9,8c-0.4,0.2-0.8,0-1-0.3c-0.2-0.4,0-0.8,0.3-1
		L599.2,508.4z"/>
	<path class="st3" d="M577.7,517.6c-0.4,0-0.7-0.4-0.7-0.8c0-0.4,0.4-0.7,0.8-0.7l5.9,0.2c0.4,0,0.7,0.4,0.7,0.8
		c0,0.4-0.4,0.7-0.8,0.7L577.7,517.6z"/>
	<path class="st3" d="M583.1,525.4c0.3-0.3,0.8-0.3,1.1,0s0.3,0.8,0,1.1l-12.5,12.2c-0.3,0.3-0.8,0.3-1.1,0s-0.3-0.8,0-1.1
		L583.1,525.4z"/>
	<path class="st3" d="M602.3,526.2c-0.4,0-0.7-0.4-0.7-0.8c0-0.4,0.4-0.7,0.8-0.7l62.2,4.1c0.4,0,0.7,0.4,0.7,0.8
		c0,0.4-0.4,0.7-0.8,0.7L602.3,526.2z"/>
	<path class="st3" d="M623.1,526.7c0,0.4-0.3,0.6-0.8,0.6c-0.4,0-0.8-0.3-0.8-0.6V516c0-0.4,0.3-0.6,0.8-0.6c0.4,0,0.8,0.3,0.8,0.6
		V526.7z"/>
	<path class="st3" d="M645.4,528.2c0,0.4-0.3,0.7-0.8,0.7c-0.4,0-0.8-0.3-0.8-0.7v-10.1c0-0.4,0.3-0.7,0.8-0.7
		c0.4,0,0.8,0.3,0.8,0.7V528.2z"/>
	<path class="st3" d="M613.3,516c-0.4,0-0.7-0.4-0.7-0.8c0-0.4,0.4-0.7,0.8-0.7l44.8,4.1c0.4,0,0.7,0.4,0.7,0.8
		c0,0.4-0.4,0.7-0.8,0.7L613.3,516z"/>
	<path class="st3" d="M606.7,522.2c-0.4,0-0.7-0.4-0.7-0.8c0-0.4,0.4-0.7,0.8-0.7l55.6,4.8c0.4,0,0.7,0.4,0.7,0.8
		c0,0.4-0.4,0.7-0.8,0.7L606.7,522.2z"/>
	<path class="st3" d="M617.8,515.7c0-0.4,0.3-0.8,0.8-0.8c0.4,0,0.8,0.3,0.8,0.8v6.6c0,0.4-0.3,0.8-0.8,0.8c-0.4,0-0.8-0.3-0.8-0.8
		V515.7z"/>
	<path class="st3" d="M612.6,515.2c0-0.4,0.3-0.8,0.8-0.8c0.4,0,0.8,0.3,0.8,0.8v6.6c0,0.4-0.3,0.8-0.8,0.8c-0.4,0-0.8-0.3-0.8-0.8
		V515.2z"/>
	<path class="st3" d="M626,516.4c0-0.4,0.3-0.8,0.8-0.8c0.4,0,0.8,0.3,0.8,0.8v6.6c0,0.4-0.3,0.8-0.8,0.8c-0.4,0-0.8-0.3-0.8-0.8
		V516.4z"/>
	<path class="st3" d="M632.9,517.1c0-0.4,0.3-0.8,0.8-0.8c0.4,0,0.8,0.3,0.8,0.8v6.6c0,0.4-0.3,0.8-0.8,0.8c-0.4,0-0.8-0.3-0.8-0.8
		V517.1z"/>
	<path class="st3" d="M636.2,517.4c0-0.4,0.3-0.8,0.8-0.8c0.4,0,0.8,0.3,0.8,0.8v6.6c0,0.4-0.3,0.8-0.8,0.8c-0.4,0-0.8-0.3-0.8-0.8
		V517.4z"/>
	<path class="st3" d="M639.9,517.7c0-0.4,0.3-0.8,0.8-0.8c0.4,0,0.8,0.3,0.8,0.8v6.6c0,0.4-0.3,0.8-0.8,0.8c-0.4,0-0.8-0.3-0.8-0.8
		V517.7z"/>
	<path class="st3" d="M629.4,516.8c0-0.4,0.3-0.8,0.8-0.8s0.8,0.3,0.8,0.8v6.6c0,0.4-0.3,0.8-0.8,0.8s-0.8-0.3-0.8-0.8V516.8z"/>
	<path class="st3" d="M647.1,518.4c0-0.4,0.3-0.8,0.8-0.8c0.4,0,0.8,0.3,0.8,0.8v6.6c0,0.4-0.3,0.8-0.8,0.8c-0.4,0-0.8-0.3-0.8-0.8
		V518.4z"/>
	<path class="st3" d="M650.3,518.7c0-0.4,0.3-0.8,0.8-0.8c0.4,0,0.8,0.3,0.8,0.8v6.6c0,0.4-0.3,0.8-0.8,0.8c-0.4,0-0.8-0.3-0.8-0.8
		V518.7z"/>
	<path class="st3" d="M653.4,519c0-0.4,0.3-0.8,0.8-0.8c0.4,0,0.8,0.3,0.8,0.8v6.6c0,0.4-0.3,0.8-0.8,0.8c-0.4,0-0.8-0.3-0.8-0.8
		V519z"/>
	<path class="st3" d="M651,525.6c-0.3-0.3-0.2-0.8,0.1-1.1s0.8-0.2,1.1,0.1l2.8,3.7c0.3,0.3,0.2,0.8-0.1,1.1s-0.8,0.2-1.1-0.1
		L651,525.6z M631.3,499.4c-0.2-0.3-0.1-0.8,0.2-1s0.8-0.1,1,0.2l12.8,18.8c0.2,0.3,0.1,0.8-0.2,1s-0.8,0.1-1-0.2L631.3,499.4z"/>
	<path class="st3" d="M601.6,525.4c0-0.4,0.3-0.8,0.8-0.8c0.4,0,0.8,0.3,0.8,0.8v31.4c0,0.4-0.3,0.8-0.8,0.8c-0.4,0-0.8-0.3-0.8-0.8
		V525.4z"/>
	<path class="st3" d="M584,534.8c0-0.4,0.3-0.8,0.8-0.8c0.4,0,0.8,0.3,0.8,0.8v31.4c0,0.4-0.3,0.8-0.8,0.8c-0.4,0-0.8-0.3-0.8-0.8
		V534.8z"/>
	<path class="st3" d="M658.8,566.2c0,0.4-0.3,0.8-0.8,0.8c-0.4,0-0.8-0.3-0.8-0.8v-36.5c0-0.4,0.3-0.8,0.8-0.8
		c0.4,0,0.8,0.3,0.8,0.8V566.2z"/>
	<path class="st3" d="M575.8,556.5c-0.4-0.1-0.7-0.4-0.6-0.9c0.1-0.4,0.4-0.7,0.9-0.6l8.8,1.3l73.2-0.8c0.4,0,0.8,0.3,0.8,0.7
		s-0.3,0.8-0.7,0.8l-73.2,0.8c-0.1,0-0.1,0-0.2,0L575.8,556.5z"/>
	<path class="st3" d="M574.9,537c0-0.4,0.3-0.8,0.8-0.8c0.4,0,0.8,0.3,0.8,0.8v22.4c0,0.4-0.3,0.8-0.8,0.8c-0.4,0-0.8-0.3-0.8-0.8
		V537z"/>
	<path class="st3" d="M668.2,534.5c0.4,0,0.8,0.3,0.8,0.8c0,0.4-0.3,0.8-0.8,0.8h-10.1c-0.4,0-0.8-0.3-0.8-0.8
		c0-0.4,0.3-0.8,0.8-0.8H668.2z"/>
	<path class="st3" d="M575.6,560.2c-0.4-0.1-0.7-0.4-0.6-0.9c0.1-0.4,0.4-0.7,0.9-0.6l9.1,1.4l73.2-0.9c0.4,0,0.8,0.3,0.8,0.7
		s-0.3,0.8-0.7,0.8l-73.2,0.9c-0.1,0-0.1,0-0.2,0L575.6,560.2z"/>
	<path class="st3" d="M620,560.7c-0.2-0.4-0.1-0.8,0.3-1c0.4-0.2,0.8-0.1,1,0.3l3.6,6c0.2,0.4,0.1,0.8-0.3,1c-0.4,0.2-0.8,0.1-1-0.3
		L620,560.7z"/>
	<path class="st3" d="M648.7,560.3c-0.2-0.4-0.1-0.8,0.3-1c0.4-0.2,0.8-0.1,1,0.3l3.7,6.2c0.2,0.4,0.1,0.8-0.3,1
		c-0.4,0.2-0.8,0.1-1-0.3L648.7,560.3z"/>
	<path class="st3" d="M622.2,563.2c-0.4,0-0.8-0.3-0.8-0.7s0.3-0.8,0.7-0.8l28.6-0.2c0.4,0,0.8,0.3,0.8,0.7s-0.3,0.8-0.7,0.8
		L622.2,563.2z"/>
	<path class="st3" d="M623.5,565.4c-0.4,0-0.8-0.3-0.8-0.7s0.3-0.8,0.7-0.8l28.1-0.4c0.4,0,0.8,0.3,0.8,0.7s-0.3,0.8-0.7,0.8
		L623.5,565.4z"/>
	<path class="st3" d="M608,561.1c0-0.4,0.3-0.8,0.7-0.8s0.7,0.3,0.7,0.8v5.1c0,0.4-0.3,0.8-0.7,0.8s-0.7-0.3-0.7-0.8V561.1z"/>
	<path class="st3" d="M574.9,559.4c0-0.4,0.3-0.8,0.8-0.8c0.4,0,0.8,0.3,0.8,0.8v3.1c0,0.4-0.3,0.8-0.8,0.8c-0.4,0-0.8-0.3-0.8-0.8
		V559.4z"/>
	<path class="st3" d="M638.8,537.7H635v18h3.7L638.8,537.7L638.8,537.7z M634.3,536.2h5.2c0.4,0,0.8,0.3,0.8,0.8v19.5
		c0,0.4-0.3,0.8-0.8,0.8h-5.2c-0.4,0-0.8-0.3-0.8-0.8V537C633.5,536.5,633.9,536.2,634.3,536.2z"/>
	<path class="st3" d="M629.1,536.2h5.2c0.4,0,0.8,0.3,0.8,0.8v19.5c0,0.4-0.3,0.8-0.8,0.8h-5.2c-0.4,0-0.8-0.3-0.8-0.8V537
		C628.3,536.5,628.6,536.2,629.1,536.2 M633.5,537.7h-3.7v18h3.7V537.7z"/>
	<path class="st3" d="M609.5,536.2h12.4c0.4,0,0.8,0.3,0.8,0.8v11.9c0,0.4-0.3,0.8-0.8,0.8h-12.4c-0.4,0-0.8-0.3-0.8-0.8V537
		C608.7,536.5,609.1,536.2,609.5,536.2 M621.1,537.7h-10.9v10.4h10.9V537.7z"/>
	<path class="st3" d="M614.9,537c0-0.4,0.3-0.8,0.8-0.8c0.4,0,0.8,0.3,0.8,0.8v11.9c0,0.4-0.3,0.8-0.8,0.8c-0.4,0-0.8-0.3-0.8-0.8
		V537z"/>
	<path class="st3" d="M621.7,542.2c0.4,0,0.8,0.3,0.8,0.8c0,0.4-0.3,0.8-0.8,0.8h-11.9c-0.4,0-0.8-0.3-0.8-0.8
		c0-0.4,0.3-0.8,0.8-0.8H621.7z"/>
	<path class="st3" d="M644.9,536.2h10.8c0.4,0,0.8,0.3,0.8,0.8v10.4c0,0.4-0.3,0.8-0.8,0.8h-10.8c-0.4,0-0.8-0.3-0.8-0.8V537
		C644.1,536.5,644.5,536.2,644.9,536.2 M655,537.7h-9.3v8.9h9.3V537.7z"/>
	<path class="st3" d="M649.6,537c0-0.4,0.3-0.8,0.8-0.8c0.4,0,0.8,0.3,0.8,0.8v10.4c0,0.4-0.3,0.8-0.8,0.8c-0.4,0-0.8-0.3-0.8-0.8
		V537z"/>
	<path class="st3" d="M655.5,541.4c0.4,0,0.8,0.3,0.8,0.8c0,0.4-0.3,0.8-0.8,0.8h-10.4c-0.4,0-0.8-0.3-0.8-0.8
		c0-0.4,0.3-0.8,0.8-0.8H655.5z"/>
	<path class="st3" d="M594.2,532.6c0-0.4,0.3-0.8,0.8-0.8s0.8,0.3,0.8,0.8v33.7c0,0.4-0.3,0.8-0.8,0.8s-0.8-0.3-0.8-0.8V532.6z"/>
</g>
</svg>
