<?xml version="1.0" encoding="utf-8"?>
<!-- Generator: Adobe Illustrator 24.0.1, SVG Export Plug-In . SVG Version: 6.00 Build 0)  -->
<svg version="1.1" id="Layer_1" xmlns="http://www.w3.org/2000/svg" xmlns:xlink="http://www.w3.org/1999/xlink" x="0px" y="0px"
	 viewBox="0 0 48.9 48.9" style="enable-background:new 0 0 48.9 48.9;" xml:space="preserve">
<style type="text/css">
	.st0{fill:#797979;}
</style>
<g>
	<circle class="st0" cx="24.3" cy="7.3" r="2.8"/>
	<circle class="st0" cx="24.4" cy="39.1" r="5.3"/>
	<path class="st0" d="M24.4,7.3L24.4,7.3c7.6,0,13.8,6.2,13.8,13.8v15.3l0,0H10.6l0,0V21.1C10.6,13.5,16.8,7.3,24.4,7.3L24.4,7.3z"
		/>
	<path class="st0" d="M41,36.4c-1.5,0-2.7-1.2-2.7-2.7V21.1c0-7.6-6.2-13.8-13.8-13.8h0h0c-7.6,0-13.8,6.2-13.8,13.8l0,0v12.6
		c0,1.5-1.2,2.7-2.7,2.7l0,0h0c-0.9,0-1.6,0.7-1.6,1.6v0.2c0,0.9,0.7,1.6,1.6,1.6H41c0.9,0,1.6-0.7,1.6-1.6l0,0v-0.2
		C42.6,37.2,41.9,36.4,41,36.4L41,36.4z"/>
	<path class="st0" d="M7.9,36.4H41c0.9,0,1.6,0.7,1.6,1.6v0.2c0,0.9-0.7,1.6-1.6,1.6H7.9c-0.9,0-1.6-0.7-1.6-1.6v-0.2
		C6.3,37.2,7,36.4,7.9,36.4z"/>
	<path class="st0" d="M41,39.9H7.9"/>
</g>
</svg>
