<?xml version="1.0" encoding="utf-8"?>
<!-- Generator: Adobe Illustrator 24.0.1, SVG Export Plug-In . SVG Version: 6.00 Build 0)  -->
<svg version="1.1" id="Layer_1" xmlns="http://www.w3.org/2000/svg" xmlns:xlink="http://www.w3.org/1999/xlink" x="0px" y="0px"
	 viewBox="0 0 110 110" style="enable-background:new 0 0 110 110;" xml:space="preserve">
<style type="text/css">
	.st0{opacity:0.19;}
	.st1{fill:#D51218;}
	.st2{fill:#FFFFFF;}
	.st3{fill:url(#SVGID_1_);}
	.st4{fill:url(#SVGID_2_);}
</style>
<g class="st0">
	<path class="st1" d="M93,107H25c-7.7,0-14-6.3-14-14V25c0-7.7,6.3-14,14-14h68c7.7,0,14,6.3,14,14v68C107,100.7,100.7,107,93,107z"
		/>
</g>
<g>
	<g>
		<path class="st2" d="M82,96H14C6.3,96,0,89.7,0,82V14C0,6.3,6.3,0,14,0h68c7.7,0,14,6.3,14,14v68C96,89.7,89.7,96,82,96z"/>
	</g>
	<g>
		<linearGradient id="SVGID_1_" gradientUnits="userSpaceOnUse" x1="55.4016" y1="43.9912" x2="40.5984" y2="21.1963">
			<stop  offset="1.704893e-07" style="stop-color:#F91E88"/>
			<stop  offset="1" style="stop-color:#FF5856"/>
		</linearGradient>
		<path class="st3" d="M48,46.2c-7.5,0-13.6-6.1-13.6-13.6S40.5,19,48,19s13.6,6.1,13.6,13.6S55.5,46.2,48,46.2z"/>
		<linearGradient id="SVGID_2_" gradientUnits="userSpaceOnUse" x1="57.6101" y1="86.535" x2="35.6686" y2="52.7481">
			<stop  offset="1.704893e-07" style="stop-color:#F91E88"/>
			<stop  offset="1" style="stop-color:#FF5856"/>
		</linearGradient>
		<path class="st4" d="M71.8,77H24.2c-0.9,0-1.7-0.8-1.7-1.7c0-14.1,11.4-25.7,25.5-25.7c14.1,0,25.5,11.7,25.5,25.7
			C73.5,76.2,72.7,77,71.8,77z"/>
	</g>
</g>
</svg>
