<?xml version="1.0" encoding="utf-8"?>
<!-- Generator: Adobe Illustrator 24.0.1, SVG Export Plug-In . SVG Version: 6.00 Build 0)  -->
<svg version="1.1" id="Layer_1" xmlns="http://www.w3.org/2000/svg" xmlns:xlink="http://www.w3.org/1999/xlink" x="0px" y="0px"
	 viewBox="0 0 487.1 484.1" style="enable-background:new 0 0 487.1 484.1;" xml:space="preserve">
<style type="text/css">
	.st0{fill:#ff5a5f;}
</style>
<g>
	<path class="st0" d="M374.3,239.3c0.2-1.6,0.3-2.1,0.4-2.6c2.7-52.7-13.8-98-52.8-133.9c-38.3-35.2-84-49.1-135.2-41.1
		c-49.7,7.7-88.3,33.8-114.4,77c-24.9,41.3-30.7,85.7-16.6,132.2c9.5,31.3,26.5,58.6,45.9,84.5c29.4,39.1,63.5,73.8,101,105.1
		c2.8,2.3,5.4,4.9,9.2,7c0-1.8,0-3.1,0-4.4c0-10.7-0.1-21.3,0.1-32c0.1-3.2-0.9-5.4-3.3-7.6c-22-19.5-42.8-40.4-61.9-62.8
		c-19.1-22.3-36.3-45.9-49.7-72.2c-16.1-31.5-21.2-64.2-12.4-98.7c17.3-67.1,84.8-109.3,152.8-95.7c55.6,11.1,98,57.1,104.7,113.8
		c0.2,1.7,0.9,2.9,2.1,4c5.1,4.5,10,9.2,15,13.7C364.1,230.1,368.9,234.4,374.3,239.3z"/>
	<path class="st0" d="M275.1,467.5c-22.3-5.1-35.6-21.6-35.7-44.6c0-14.5,0-29,0-43.6c0-1.4,0.4-2.9-0.6-4.7c-2,1.7-3.9,3.2-5.6,4.9
		c-1.7,1.7-2.9,2.1-4.8,0c-5.7-6.5-11.5-12.9-17.5-19.2c-2-2.1-0.7-3.2,0.7-4.5c12.5-11.4,24.9-22.8,37.4-34.2
		c19.1-17.4,38.1-34.8,57.2-52.2c8.1-7.4,16.1-14.7,24.1-22.1c2-1.9,3.2-2.2,5.5-0.1c37.7,34.6,75.5,69.2,113.3,103.7
		c2.5,2.2,3.9,3.5,7.2,6.4c0.6,0.7,0.8,0.8,0.7,1.3c-5.9,5.5-11,11.8-16.5,17.8c-4.9,5.3-4.9,5.3-10.5,0.3c-0.8-0.7-1.5-2.3-2.8-1.7
		c-1.2,0.6-0.6,2.2-0.6,3.3c0,15.8,0.1,31.7-0.1,47.5c-0.3,19-13.6,35.7-31.9,40.8c-1.9,0.6-3.6,1.4-5.5,1.6 M333.1,436.3
		c16,0,31.9,0,47.9,0c9.7,0,13.8-4.2,13.8-13.9c0-24.5-0.1-49,0.1-73.6c0-3.1-1-5.2-3.2-7.2c-18.5-16.8-37-33.7-55.4-50.7
		c-2.8-2.6-4.4-2-6.8,0.3c-18.5,17.1-37,34-55.7,50.9c-1.8,1.7-2.6,3.4-2.6,5.9c0.1,24.9,0,49.8,0.1,74.8c0,9,4.5,13.4,13.6,13.5
		C301,436.3,317.1,436.3,333.1,436.3z"/>
	<path class="st0" d="M374.3,239.3c-5.4-4.9-10.2-9.2-15-13.6c-5-4.6-10-9.2-15-13.7c-1.3-1.1-1.9-2.3-2.1-4
		c-6.7-56.6-49.1-102.6-104.7-113.8c-68-13.6-135.5,28.7-152.8,95.7c-8.9,34.5-3.8,67.2,12.4,98.7c13.5,26.3,30.6,49.9,49.7,72.2
		c19.1,22.4,39.9,43.2,61.9,62.8c2.4,2.1,3.4,4.4,3.3,7.6c-0.2,10.7-0.1,21.3-0.1,32c0,1.3,0,2.6,0,4.4c-3.8-2-6.5-4.6-9.2-7
		c-37.5-31.3-71.6-66-101-105.1c-19.4-25.9-36.4-53.2-45.9-84.5c-14.1-46.4-8.4-90.9,16.6-132.2c26-43.1,64.7-69.2,114.4-77
		c51.2-8,96.9,5.9,135.2,41.1c39,35.9,55.6,81.2,52.8,133.9C374.6,237.3,374.5,237.8,374.3,239.3z"/>
	<path class="st0" d="M279.2,223.4c0,37.4-30.1,67.6-67.5,67.6c-37.6,0-67.7-30.1-67.7-67.8c0-37.6,30.3-67.7,67.9-67.6
		C249.3,155.6,279.3,185.8,279.2,223.4z M176,223.3c0,19.9,15.8,35.7,35.7,35.7c19.8,0,35.7-16,35.7-35.9
		c0-19.9-15.9-35.7-35.8-35.7C191.7,187.5,176,203.3,176,223.3z"/>
	<path class="st0" d="M333.4,355.6c6.8,0,13.6,0.1,20.3-0.1c2.6-0.1,3.7,0.5,3.7,3.5c-0.1,13.7-0.1,27.4,0,41.1
		c0,2.5-0.6,3.4-3.3,3.4c-13.8-0.1-27.6-0.1-41.5,0c-2.5,0-3.1-0.8-3.1-3.2c0.1-13.8,0.1-27.7,0-41.5c0-2.8,1.1-3.3,3.5-3.3
		C319.8,355.7,326.6,355.6,333.4,355.6z"/>
</g>
</svg>
