<?xml version="1.0" encoding="utf-8"?>
<!-- Generator: Adobe Illustrator 24.0.1, SVG Export Plug-In . SVG Version: 6.00 Build 0)  -->
<svg version="1.1" id="Layer_1" xmlns="http://www.w3.org/2000/svg" xmlns:xlink="http://www.w3.org/1999/xlink" x="0px" y="0px"
	 viewBox="0 0 442 428.8" style="enable-background:new 0 0 442 428.8;" xml:space="preserve">
<style type="text/css">
	.st0{fill:#ff5a5f;}
</style>
<g>
	<path class="st0" d="M336.6,417.3c-9-1.2-7.2-1.4-10.7-2c-30.4-5.5-57.9-18.1-84.1-34.2c-28.4-17.5-54.2-38.5-78.6-61.2
		c-29.3-27.3-56.5-56.4-80.4-88.6c-20.4-27.6-37.9-57-48.2-90.1c-7.8-25.1-10.5-50.5-4.6-76.4c3.3-14.4,11.1-25.4,23.8-33
		c10.7-6.4,21.4-13,32.1-19.4c2.8-1.7,5.8-3,8.7-4.5c3.5-0.7,6.9-0.7,10.4,0c9.2,2.6,14.5,9.4,19.5,17C141.1,50,157.9,75,174.6,100
		c8.3,12.5,6,25.8-5.7,34.9c-9.5,7.3-18.9,14.7-28.3,22.2c-6,4.7-6.6,8.9-3.1,15.7c9.5,18.5,21.4,35.3,35.2,50.7
		c20.7,23,42.4,44.9,67.1,63.6c10.1,7.7,21,14.1,32.2,19.9c5.6,2.9,10.1,1.9,14.1-3.1c7.7-9.7,15.3-19.5,22.8-29.3
		c8.8-11.4,22.3-13.7,34.3-5.6c25.1,16.7,50.2,33.6,75.4,50.3c7.6,5,14.4,10.3,17,19.6c0,3.5,0,6.9,0,10.4c-1.3,2.6-2.5,5.2-3.9,7.7
		c-6.7,11.3-13.6,22.6-20.4,33.9c-7.6,12.5-18.6,20.2-32.9,23.2c-5.4,1.2-10.8,2.1-16.2,3.2C353.6,418.6,345.1,418.8,336.6,417.3z
		 M40.5,93.4c0,19.2,4.8,41.1,13.9,62.4c12.7,29.9,30.4,56.7,50.7,81.9c30,37.2,63.6,70.9,100.8,101c27.8,22.5,57.4,42.2,91.3,54.6
		c23.3,8.5,47.1,12.9,72,8.8c11.2-1.9,21.8-5.4,28.3-15.3c8.1-12.3,15.5-25.2,23-37.9c2.8-4.8,1.7-9.6-2.6-13.2
		c-1.3-1.1-2.8-2.1-4.2-3c-25.5-17.1-51.1-34.1-76.6-51.2c-7.9-5.3-12.4-4.5-18.3,3.1c-7.5,9.7-14.9,19.5-22.6,28.9
		c-7.3,8.9-18.4,11.7-27.9,7c-13.3-6.5-25.9-14.1-37.7-23.1c-20.9-15.8-39.5-34.1-57.5-53c-18.7-19.7-35.3-40.9-47.7-65.2
		c-6.7-13.1-4.5-24.1,7.1-33.2c9.4-7.4,18.9-14.7,28.3-22.1c5.8-4.6,6.7-9.8,2.7-16c-17.7-26.7-35.5-53.4-53.3-80.1
		c-4.7-7.1-9.6-8.1-16.9-3.7c-10.8,6.5-21.6,13.2-32.4,19.6c-9,5.3-14.4,13.2-16.9,23.2C41.4,75.6,40.4,84.5,40.5,93.4z"/>
	<path class="st0" d="M387.7,187c0,1.6,0.1,3.2,0,4.8c-0.2,4.2-2.7,7-6.5,7.1c-4,0.1-6.9-2.7-7-7c-0.2-8.5-0.7-17.1-2.9-25.3
		c-12.8-48.2-43.4-77.8-92.1-88.5c-6.9-1.5-14-1.7-21-2.1c-3.1-0.2-5.2-1.9-6.2-4.8c-0.9-2.7,0-5,1.9-6.9c1.7-1.8,3.9-2,6.3-1.9
		c28.3,0.6,53.7,9.4,76.4,26.3C367.1,111.7,386.9,149.6,387.7,187z"/>
	<path class="st0" d="M346.9,187c0.2,8.7-1.8,11.9-6.6,11.9c-4.7,0.1-6.7-2.8-7-9.9c-1.2-35.8-29.5-66.8-64.9-71.1
		c-2.9-0.3-5.8-0.6-8.7-0.7c-4.9-0.3-8.1-3-8.1-7c0-4.1,3.3-7,8.2-6.8c21.9,0.7,41.4,8,57.7,22.8C335.9,142.8,345.7,163.8,346.9,187
		z"/>
	<path class="st0" d="M260.5,144.5c24.3,0.6,45.4,21.8,45.6,46.1c0.1,5.1-2.4,8.2-6.6,8.3c-4.1,0.1-6.6-2.5-7-7.5
		c-1.5-19.4-14.2-32.1-33.6-33.4c-4.5-0.3-7.5-3.3-7.3-7.3C251.8,146.8,255.1,144.4,260.5,144.5z"/>
</g>
</svg>
