<?xml version="1.0" encoding="utf-8"?>
<!-- Generator: Adobe Illustrator 24.0.1, SVG Export Plug-In . SVG Version: 6.00 Build 0)  -->
<svg version="1.1" id="Layer_1" xmlns="http://www.w3.org/2000/svg" xmlns:xlink="http://www.w3.org/1999/xlink" x="0px" y="0px"
	 viewBox="0 0 451 351" style="enable-background:new 0 0 451 351;" xml:space="preserve">
<style type="text/css">
	.st0{fill:#ff5a5f;}
</style>
<g>
	<path class="st0" d="M422.9,277.7c-1.3,4-2.6,8-4,11.9c-0.5,1.3-0.9,2.9-2.5,4c-5.8-6.5-11.6-13-17.4-19.5
		c-33.1-37.1-66.1-74.1-99.2-111.2c-0.2-0.3-0.5-0.6-0.8-0.8c-3.3-3.6-3.3-3.6,0.3-6.8C337.2,122.2,375,89,412.8,55.8
		c2.3-2,3.2-1.7,4.6,0.8c2.7,4.9,3.7,10.5,5.6,15.6C422.9,140.8,422.9,209.2,422.9,277.7z"/>
	<path class="st0" d="M231.4,319c-47.4,0-94.8,0-142.1,0c-8.1,0-15.8-1.7-23.1-5.3c-2.7-1.3-3.8-2.2-1.1-5.1
		c21.9-24.3,43.6-48.7,65.4-73.1c17.4-19.6,34.9-39.1,52.3-58.7c1.9-2.1,2.8-2.2,4.9-0.3c11.5,10.3,23.2,20.5,34.9,30.6
		c6,5.3,11.7,5.4,17.7,0.2c11.7-10.1,23.3-20.3,34.9-30.6c1.9-1.7,3.1-2.1,5,0.1c39.1,44,78.3,88,117.7,131.9
		c2.6,2.9,1.7,3.8-1.1,5.2c-7.3,3.6-15,5.3-23.1,5.3C326.2,318.9,278.8,319,231.4,319z"/>
	<path class="st0" d="M397.4,37.5c-8.8,7.7-17.6,15.4-26.4,23.2c-45.3,39.7-90.7,79.4-135.9,119.3c-3,2.7-4.6,2.5-7.6,0
		C174,132.7,120.3,85.7,66.7,38.7c-0.5-0.4-1.1-0.6-2.1-1.2c6.9-4.1,13.5-5.8,20.5-6.4c1.5-0.1,3-0.1,4.5-0.1c94.5,0,189,0,283.5,0
		c7.5,0,14.6,1.3,21.4,4.5C395.5,35.9,396.7,36.2,397.4,37.5z"/>
	<path class="st0" d="M46,293.9c-4.1-7.2-6.2-14.6-6.2-22.5c-0.1-19.9,0-39.7,0-59.6c0-44,0-87.9,0-131.9c0-8.3,1.9-16,5.7-23.4
		c1.1-2.2,2-3,4.3-0.9c37.7,33.2,75.6,66.3,113.4,99.5c3.8,3.4,3.8,3.4,0.5,7C126.3,204,88.9,245.9,51.5,287.9
		C49.8,289.8,48,291.7,46,293.9z"/>
</g>
</svg>
