<svg id="Layer_1" data-name="Layer 1" xmlns="http://www.w3.org/2000/svg" viewBox="0 0 511.998 511" stroke="#333" fill="#333" xmlns:v="https://vecta.io/nano"><path d="M511.84 226.78v-.004a29.39 29.39 0 0 0-11.336-20.2l-29.14-22.687 10.953-36.14a29.39 29.39 0 0 0-21.351-36.987l-36.66-8.56-4.68-37.352a29.34 29.34 0 0 0-11.832-20.03c-6.523-4.746-14.8-6.594-22.72-5.07l-36.973 7.1-19.473-32.223C320.88 1.793 304.605-3.05 290.785 3.34c-.973.45-1.9.988-2.727 1.566l-32.1 22.352-30.895-21.52a29.39 29.39 0 0 0-22.805-4.605c-7.883 1.672-14.797 6.594-18.965 13.492l-19.465 32.22-36.977-7.094c-7.918-1.516-16.195.332-22.707 5.066A29.36 29.36 0 0 0 92.32 64.852l-4.68 37.355-38.773 9.05-1.82.594-.672.293c-14.086 6.16-21.133 21.137-16.75 35.605l10.95 36.14-30.4 23.64-1.762 1.53-.496.543c-10.2 11.14-10.598 27.992-.95 39.258l23.793 28.453-19.285 34.996-.77 1.75-.223.652c-4.8 14.37 1.742 29.988 15.234 36.32l34.078 15.992-3.2 37.508a29.4 29.4 0 0 0 7.4 22.063 29.38 29.38 0 0 0 21.168 9.68l37.637.75 12.344 35.56c2.64 7.617 8.38 13.867 15.738 17.14s15.84 3.363 23.277.234l34.7-14.62 27.23 29.06 1.426 1.27.55.4c5.38 3.973 11.664 5.918 17.9 5.918 7.88 0 15.66-3.117 21.352-9.2l25.742-27.465 34.695 14.625a29.38 29.38 0 0 0 23.258-.234 29.36 29.36 0 0 0 15.746-17.141l12.348-35.562 39.813-.793 1.9-.207.68-.137c14.844-3.027 25.1-16.508 23.828-31.352l-3.187-37.512 34.082-15.992a29.37 29.37 0 0 0 15.398-17.449 29.38 29.38 0 0 0-2.203-23.168l-18.242-33.102 23.797-28.453a29.37 29.37 0 0 0 6.867-22.082zm-59.043 37.668c-4.715 5.566-5.52 13.57-1.992 19.965l21.926 39.8-41.13 19.3c-6.668 3.133-10.727 10.168-10.105 17.508l3.848 45.266-45.422.906c-7.363.148-13.937 4.922-16.352 11.883l-14.898 42.918-41.86-17.645a17.76 17.76 0 0 0-19.777 4.203L255.97 481.7l-31.066-33.152c-3.402-3.633-8.133-5.578-12.937-5.578a17.53 17.53 0 0 0-6.832 1.379l-41.867 17.645-14.895-42.906c-2.4-6.965-8.984-11.746-16.355-11.895l-45.426-.906 3.848-45.266a17.76 17.76 0 0 0-10.105-17.508l-41.125-19.3 21.926-39.785c3.53-6.402 2.723-14.402-1.996-19.973l-28.86-34.512 35.36-27.508c5.8-4.465 8.25-12.137 6.125-19.13L58.6 139.82l44.246-10.336c7.168-1.676 12.602-7.707 13.523-15.02l5.648-45.078 44.625 8.56c7.234 1.383 14.648-1.922 18.46-8.223l23.492-38.883L245.87 56.8a17.75 17.75 0 0 0 20.215 0l37.277-25.965L326.86 69.7a17.76 17.76 0 0 0 18.469 8.23l44.617-8.56 5.648 45.074a17.76 17.76 0 0 0 13.527 15.027l44.242 10.332-13.176 43.477a17.76 17.76 0 0 0 6.133 19.137l35.344 27.52zM257.563 128.78c-70.3 0-127.496 57.2-127.496 127.496s57.195 127.496 127.496 127.496 127.5-57.195 127.5-127.496-57.2-127.496-127.5-127.496zm0 224.97c-53.746 0-97.477-43.727-97.477-97.473s43.73-97.477 97.477-97.477 97.477 43.727 97.477 97.477-43.727 97.473-97.477 97.473zM294.2 216.7l-59.223 59.22-16.07-16.074c-5.863-5.86-15.367-5.86-21.227 0s-5.863 15.367 0 21.23l26.684 26.684a14.95 14.95 0 0 0 10.613 4.398c3.84 0 7.684-1.465 10.613-4.398l69.836-69.832c5.86-5.863 5.86-15.367 0-21.227a15.01 15.01 0 0 0-21.227 0zm0 0"/></svg>