<svg id="Layer_1" data-name="Layer 1" xmlns="http://www.w3.org/2000/svg" viewBox="0 0 910.288 910.287" fill="#333" xmlns:v="https://vecta.io/nano"><path d="M873.206 202.06l-1.212-28.5-28.386-2.915c-109.036-11.198-202.773-51.887-262.2-84.05-65.1-35.226-104.56-68.274-104.922-68.58L455.165 0 433.84 17.98c-.392.33-39.853 33.38-104.95 68.604-59.437 32.162-153.173 72.85-262.2 84.05l-28.387 2.915-1.212 28.5c-.217 5.104-4.777 126.698 42.06 273.937 27.637 86.887 67.55 164.736 118.627 231.396 64.14 83.7 145.948 149.68 243.155 196.102l14.22 6.793 14.22-6.793C566.57 857.072 648.38 791.096 712.52 707.392c51.08-66.658 91-144.5 118.628-231.395 46.835-147.238 42.276-268.832 42.06-273.937zM455.143 836.93c-81.095-41.2-149.73-97.887-204.194-168.646-46.393-60.275-82.812-130.998-108.248-210.2-31.088-96.808-38.06-183.144-39.47-225.538 43.735-6.494 87.95-17.42 131.833-32.597 42.9-14.836 85.598-33.752 126.907-56.22 41.915-22.798 73.8-44.573 93.172-58.812 19.362 14.238 51.258 36.014 93.173 58.812 41.3 22.47 84.007 41.385 126.907 56.22 43.896 15.18 88.123 26.108 131.87 32.602-1.36 41.978-8.194 127.098-38.842 223.443-25.317 79.594-61.694 150.672-108.12 211.258-54.593 71.243-123.498 128.27-204.987 169.68zm179.87-531.914L417.368 522.662l-98.795-98.795-46.67 46.67L417.368 616l264.314-264.314z"/></svg>